<?xml version="1.0" encoding="UTF-8" standalone="no"?>
<!DOCTYPE svg PUBLIC "-//W3C//DTD SVG 1.0//EN"
 "http://www.w3.org/TR/2001/REC-SVG-20010904/DTD/svg10.dtd" [
 <!ATTLIST svg xmlns:xlink CDATA #FIXED "http://www.w3.org/1999/xlink">
]>
<!-- Generated by Graphviz version 2.20.2 (Wed Sep 16 11:12:21 UTC 2009)
     For user: (paolino) paolino,,, -->
<!-- Title: G Pages: 1 -->
<svg width="1424pt" height="551pt"
 viewBox="0.00 0.00 1424.00 551.00" xmlns="http://www.w3.org/2000/svg" xmlns:xlink="http://www.w3.org/1999/xlink">
<g id="graph0" class="graph" transform="scale(1 1) rotate(0) translate(4 547)">
<title>G</title>
<polygon style="fill:white;stroke:white;" points="-4,4 -4,-547 1420,-547 1420,4 -4,4"/>
<g id="cluster2" class="cluster"><title>cluster_0</title>
<polygon style="fill:#ccffcc;stroke:#ccffcc;" points="1068,-16 1068,-458 1408,-458 1408,-16 1068,-16"/>
<text text-anchor="middle" x="1238" y="-441.9" style="font-family:Times New Roman;font-size:14.00;">Core</text>
</g>
<g id="cluster3" class="cluster"><title>cluster_1</title>
<polygon style="fill:#ccffcc;stroke:#ccffcc;" points="812,-381 812,-535 936,-535 936,-381 812,-381"/>
<text text-anchor="middle" x="874" y="-518.9" style="font-family:Times New Roman;font-size:14.00;">Eventi</text>
</g>
<g id="cluster4" class="cluster"><title>cluster_2</title>
<polygon style="fill:#ccffcc;stroke:#ccffcc;" points="208,-160 208,-309 952,-309 952,-160 208,-160"/>
<text text-anchor="middle" x="580" y="-292.9" style="font-family:Times New Roman;font-size:14.00;">Lib</text>
</g>
<!-- u21 -->
<g id="node1" class="node"><title>u21</title>
<ellipse style="fill:none;stroke:black;" cx="150" cy="-484" rx="43.7776" ry="18"/>
<text text-anchor="middle" x="150" y="-479.9" style="font-family:Times New Roman;font-size:14.00;">Ordine</text>
</g>
<!-- u19 -->
<g id="node3" class="node"><title>u19</title>
<ellipse style="fill:none;stroke:black;" cx="70" cy="-407" rx="52.1162" ry="18"/>
<text text-anchor="middle" x="70" y="-402.9" style="font-family:Times New Roman;font-size:14.00;">Impegno</text>
</g>
<!-- u21&#45;&gt;u19 -->
<g id="edge5" class="edge"><title>u21&#45;&gt;u19</title>
<path style="fill:none;stroke:black;" d="M133,-467C121,-457 107,-443 95,-431"/>
<polygon style="fill:black;stroke:black;" points="97.546,-428.596 88,-424 92.5962,-433.546 97.546,-428.596"/>
</g>
<!-- u16 -->
<g id="node4" class="node"><title>u16</title>
<ellipse style="fill:none;stroke:black;" cx="87" cy="-335" rx="55.0898" ry="18"/>
<text text-anchor="middle" x="87" y="-330.9" style="font-family:Times New Roman;font-size:14.00;">Accredito</text>
</g>
<!-- u21&#45;&gt;u16 -->
<g id="edge7" class="edge"><title>u21&#45;&gt;u16</title>
<path style="fill:none;stroke:black;" d="M150,-466C149,-444 146,-408 131,-381 127,-373 122,-366 116,-360"/>
<polygon style="fill:black;stroke:black;" points="118.219,-357.221 109,-352 112.951,-361.831 118.219,-357.221"/>
</g>
<!-- u20 -->
<g id="node2" class="node"><title>u20</title>
<ellipse style="fill:none;stroke:black;" cx="44" cy="-484" rx="43.7776" ry="18"/>
<text text-anchor="middle" x="44" y="-479.9" style="font-family:Times New Roman;font-size:14.00;">Logger</text>
</g>
<!-- u20&#45;&gt;u19 -->
<g id="edge9" class="edge"><title>u20&#45;&gt;u19</title>
<path style="fill:none;stroke:black;" d="M50,-466C53,-457 57,-445 61,-435"/>
<polygon style="fill:black;stroke:black;" points="64.4788,-435.584 64,-425 57.7741,-433.573 64.4788,-435.584"/>
</g>
<!-- u19&#45;&gt;u16 -->
<g id="edge11" class="edge"><title>u19&#45;&gt;u16</title>
<path style="fill:none;stroke:black;" d="M74,-389C76,-381 78,-372 80,-363"/>
<polygon style="fill:black;stroke:black;" points="83.4788,-363.584 83,-353 76.7741,-361.573 83.4788,-363.584"/>
</g>
<!-- u10 -->
<g id="node5" class="node"><title>u10</title>
<ellipse style="fill:none;stroke:black;" cx="507" cy="-484" rx="34.0492" ry="18"/>
<text text-anchor="middle" x="507" y="-479.9" style="font-family:Times New Roman;font-size:14.00;">Main</text>
</g>
<!-- u7 -->
<g id="node7" class="node"><title>u7</title>
<ellipse style="fill:none;stroke:black;" cx="1165" cy="-335" rx="68.7933" ry="18"/>
<text text-anchor="middle" x="1165" y="-330.9" style="font-family:Times New Roman;font-size:14.00;">Inserimento</text>
</g>
<!-- u6 -->
<g id="node8" class="node"><title>u6</title>
<ellipse style="fill:none;stroke:black;" cx="1305" cy="-258" rx="34.9399" ry="18"/>
<text text-anchor="middle" x="1305" y="-253.9" style="font-family:Times New Roman;font-size:14.00;">Nodo</text>
</g>
<!-- u7&#45;&gt;u6 -->
<g id="edge49" class="edge"><title>u7&#45;&gt;u6</title>
<path style="fill:none;stroke:black;" d="M1195,-319C1218,-307 1249,-289 1272,-276"/>
<polygon style="fill:black;stroke:black;" points="1273.96,-278.916 1281,-271 1270.56,-272.797 1273.96,-278.916"/>
</g>
<!-- u5 -->
<g id="node9" class="node"><title>u5</title>
<ellipse style="fill:none;stroke:black;" cx="1122" cy="-114" rx="45.8622" ry="18"/>
<text text-anchor="middle" x="1122" y="-109.9" style="font-family:Times New Roman;font-size:14.00;">Parsing</text>
</g>
<!-- u7&#45;&gt;u5 -->
<g id="edge41" class="edge"><title>u7&#45;&gt;u5</title>
<path style="fill:none;stroke:black;" d="M1123,-320C1119,-317 1115,-314 1112,-309 1081,-256 1099,-182 1112,-141"/>
<polygon style="fill:black;stroke:black;" points="1115.16,-142.594 1115,-132 1108.52,-140.38 1115.16,-142.594"/>
</g>
<!-- u4 -->
<g id="node10" class="node"><title>u4</title>
<ellipse style="fill:none;stroke:black;" cx="1248" cy="-186" rx="91.9198" ry="18"/>
<text text-anchor="middle" x="1248" y="-181.9" style="font-family:Times New Roman;font-size:14.00;">Programmazione</text>
</g>
<!-- u7&#45;&gt;u4 -->
<g id="edge47" class="edge"><title>u7&#45;&gt;u4</title>
<path style="fill:none;stroke:black;" d="M1175,-317C1189,-291 1216,-243 1233,-213"/>
<polygon style="fill:black;stroke:black;" points="1236.2,-214.441 1238,-204 1230.08,-211.042 1236.2,-214.441"/>
</g>
<!-- u1 -->
<g id="node12" class="node"><title>u1</title>
<ellipse style="fill:none;stroke:black;" cx="1333" cy="-42" rx="37.0233" ry="18"/>
<text text-anchor="middle" x="1333" y="-37.9" style="font-family:Times New Roman;font-size:14.00;">Types</text>
</g>
<!-- u7&#45;&gt;u1 -->
<g id="edge43" class="edge"><title>u7&#45;&gt;u1</title>
<path style="fill:none;stroke:black;" d="M1139,-318C1136,-315 1134,-312 1132,-309 1118,-279 1113,-188 1129,-160 1142,-138 1160,-149 1177,-132 1190,-118 1184,-108 1197,-96 1223,-73 1260,-59 1289,-51"/>
<polygon style="fill:black;stroke:black;" points="1289.88,-54.3933 1299,-49 1288.51,-47.5292 1289.88,-54.3933"/>
</g>
<!-- u0 -->
<g id="node13" class="node"><title>u0</title>
<ellipse style="fill:none;stroke:black;" cx="1260" cy="-114" rx="54.2008" ry="18"/>
<text text-anchor="middle" x="1260" y="-109.9" style="font-family:Times New Roman;font-size:14.00;">Contesto</text>
</g>
<!-- u7&#45;&gt;u0 -->
<g id="edge45" class="edge"><title>u7&#45;&gt;u0</title>
<path style="fill:none;stroke:black;" d="M1156,-317C1141,-283 1115,-208 1147,-160 1155,-148 1183,-137 1208,-129"/>
<polygon style="fill:black;stroke:black;" points="1209.43,-132.226 1218,-126 1207.42,-125.521 1209.43,-132.226"/>
</g>
<!-- u9 -->
<g id="node23" class="node"><title>u9</title>
<ellipse style="fill:none;stroke:black;" cx="620" cy="-258" rx="39.8056" ry="18"/>
<text text-anchor="middle" x="620" y="-253.9" style="font-family:Times New Roman;font-size:14.00;">Signal</text>
</g>
<!-- u7&#45;&gt;u9 -->
<g id="edge39" class="edge"><title>u7&#45;&gt;u9</title>
<path style="fill:none;stroke:black;" d="M1111,-324C1095,-321 1078,-318 1062,-317 1041,-314 690,-317 669,-309 657,-303 646,-293 637,-283"/>
<polygon style="fill:black;stroke:black;" points="639.8,-280.9 631,-275 634.2,-285.1 639.8,-280.9"/>
</g>
<!-- u8 -->
<g id="node24" class="node"><title>u8</title>
<ellipse style="fill:none;stroke:black;" cx="592" cy="-186" rx="45.1673" ry="18"/>
<text text-anchor="middle" x="592" y="-181.9" style="font-family:Times New Roman;font-size:14.00;">Aspetti</text>
</g>
<!-- u7&#45;&gt;u8 -->
<g id="edge37" class="edge"><title>u7&#45;&gt;u8</title>
<path style="fill:none;stroke:black;" d="M1121,-321C1111,-317 1101,-313 1092,-309 1042,-284 1039,-259 986,-240 925,-217 740,-198 646,-191"/>
<polygon style="fill:black;stroke:black;" points="646.299,-187.512 636,-190 645.602,-194.478 646.299,-187.512"/>
</g>
<!-- u6&#45;&gt;u4 -->
<g id="edge53" class="edge"><title>u6&#45;&gt;u4</title>
<path style="fill:none;stroke:black;" d="M1292,-241C1285,-232 1276,-222 1269,-212"/>
<polygon style="fill:black;stroke:black;" points="1271.22,-209.221 1262,-204 1265.95,-213.831 1271.22,-209.221"/>
</g>
<!-- u6&#45;&gt;u1 -->
<g id="edge51" class="edge"><title>u6&#45;&gt;u1</title>
<path style="fill:none;stroke:black;" d="M1323,-242C1333,-232 1344,-219 1349,-204 1365,-159 1353,-102 1343,-70"/>
<polygon style="fill:black;stroke:black;" points="1346.23,-68.5725 1340,-60 1339.52,-70.584 1346.23,-68.5725"/>
</g>
<!-- u4&#45;&gt;u5 -->
<g id="edge59" class="edge"><title>u4&#45;&gt;u5</title>
<path style="fill:none;stroke:black;" d="M1218,-169C1200,-159 1176,-145 1157,-134"/>
<polygon style="fill:black;stroke:black;" points="1158.44,-130.797 1148,-129 1155.04,-136.916 1158.44,-130.797"/>
</g>
<!-- u4&#45;&gt;u1 -->
<g id="edge55" class="edge"><title>u4&#45;&gt;u1</title>
<path style="fill:none;stroke:black;" d="M1283,-169C1298,-160 1314,-148 1323,-132 1334,-114 1336,-89 1336,-70"/>
<polygon style="fill:black;stroke:black;" points="1339.48,-69.6021 1335,-60 1332.51,-70.2987 1339.48,-69.6021"/>
</g>
<!-- u4&#45;&gt;u0 -->
<g id="edge57" class="edge"><title>u4&#45;&gt;u0</title>
<path style="fill:none;stroke:black;" d="M1251,-168C1252,-160 1254,-151 1255,-142"/>
<polygon style="fill:black;stroke:black;" points="1258.47,-142.492 1257,-132 1251.61,-141.119 1258.47,-142.492"/>
</g>
<!-- u2 -->
<g id="node11" class="node"><title>u2</title>
<ellipse style="fill:none;stroke:black;" cx="1165" cy="-407" rx="54.8957" ry="18"/>
<text text-anchor="middle" x="1165" y="-402.9" style="font-family:Times New Roman;font-size:14.00;">Controllo</text>
</g>
<!-- u2&#45;&gt;u7 -->
<g id="edge73" class="edge"><title>u2&#45;&gt;u7</title>
<path style="fill:none;stroke:black;" d="M1165,-389C1165,-381 1165,-372 1165,-363"/>
<polygon style="fill:black;stroke:black;" points="1168.5,-363 1165,-353 1161.5,-363 1168.5,-363"/>
</g>
<!-- u2&#45;&gt;u6 -->
<g id="edge67" class="edge"><title>u2&#45;&gt;u6</title>
<path style="fill:none;stroke:black;" d="M1199,-393C1219,-384 1242,-370 1258,-353 1277,-333 1289,-306 1297,-285"/>
<polygon style="fill:black;stroke:black;" points="1300.16,-286.594 1300,-276 1293.52,-284.38 1300.16,-286.594"/>
</g>
<!-- u2&#45;&gt;u5 -->
<g id="edge71" class="edge"><title>u2&#45;&gt;u5</title>
<path style="fill:none;stroke:black;" d="M1131,-393C1115,-384 1097,-371 1087,-353 1073,-325 1042,-330 1094,-160 1096,-153 1100,-146 1103,-140"/>
<polygon style="fill:black;stroke:black;" points="1106.37,-141.262 1109,-131 1100.54,-137.379 1106.37,-141.262"/>
</g>
<!-- u2&#45;&gt;u4 -->
<g id="edge65" class="edge"><title>u2&#45;&gt;u4</title>
<path style="fill:none;stroke:black;" d="M1199,-393C1215,-384 1233,-371 1243,-353 1267,-309 1262,-249 1255,-214"/>
<polygon style="fill:black;stroke:black;" points="1258.39,-213.119 1253,-204 1251.53,-214.492 1258.39,-213.119"/>
</g>
<!-- u2&#45;&gt;u1 -->
<g id="edge63" class="edge"><title>u2&#45;&gt;u1</title>
<path style="fill:none;stroke:black;" d="M1203,-394C1215,-390 1229,-385 1241,-381 1281,-367 1297,-376 1331,-353 1375,-323 1399,-309 1399,-258 1399,-258 1399,-258 1399,-186 1399,-141 1372,-95 1353,-67"/>
<polygon style="fill:black;stroke:black;" points="1355.8,-64.9 1347,-59 1350.2,-69.1 1355.8,-64.9"/>
</g>
<!-- u2&#45;&gt;u0 -->
<g id="edge69" class="edge"><title>u2&#45;&gt;u0</title>
<path style="fill:none;stroke:black;" d="M1211,-397C1256,-385 1321,-359 1349,-309 1382,-251 1383,-216 1349,-160 1341,-146 1327,-136 1312,-129"/>
<polygon style="fill:black;stroke:black;" points="1313.56,-125.863 1303,-125 1310.72,-132.26 1313.56,-125.863"/>
</g>
<!-- u3 -->
<g id="node25" class="node"><title>u3</title>
<ellipse style="fill:none;stroke:black;" cx="518" cy="-258" rx="43.7776" ry="18"/>
<text text-anchor="middle" x="518" y="-253.9" style="font-family:Times New Roman;font-size:14.00;">Prioriti</text>
</g>
<!-- u2&#45;&gt;u3 -->
<g id="edge61" class="edge"><title>u2&#45;&gt;u3</title>
<path style="fill:none;stroke:black;" d="M1122,-396C1043,-376 869,-336 720,-317 688,-312 602,-322 571,-309 558,-303 547,-293 538,-283"/>
<polygon style="fill:black;stroke:black;" points="540.219,-280.221 531,-275 534.951,-284.831 540.219,-280.221"/>
</g>
<!-- u0&#45;&gt;u1 -->
<g id="edge75" class="edge"><title>u0&#45;&gt;u1</title>
<path style="fill:none;stroke:black;" d="M1277,-97C1287,-88 1299,-76 1309,-66"/>
<polygon style="fill:black;stroke:black;" points="1311.4,-68.546 1316,-59 1306.45,-63.5962 1311.4,-68.546"/>
</g>
<!-- u18 -->
<g id="node15" class="node"><title>u18</title>
<ellipse style="fill:none;stroke:black;" cx="878" cy="-407" rx="50.0315" ry="18"/>
<text text-anchor="middle" x="878" y="-402.9" style="font-family:Times New Roman;font-size:14.00;">Servizio</text>
</g>
<!-- u18&#45;&gt;u7 -->
<g id="edge13" class="edge"><title>u18&#45;&gt;u7</title>
<path style="fill:none;stroke:black;" d="M919,-397C968,-385 1050,-365 1105,-351"/>
<polygon style="fill:black;stroke:black;" points="1106.43,-354.226 1115,-348 1104.42,-347.521 1106.43,-354.226"/>
</g>
<!-- u18&#45;&gt;u4 -->
<g id="edge15" class="edge"><title>u18&#45;&gt;u4</title>
<path style="fill:none;stroke:black;" d="M904,-391C968,-353 1135,-253 1210,-208"/>
<polygon style="fill:black;stroke:black;" points="1211.96,-210.916 1219,-203 1208.56,-204.797 1211.96,-210.916"/>
</g>
<!-- u11 -->
<g id="node22" class="node"><title>u11</title>
<ellipse style="fill:none;stroke:black;" cx="414" cy="-258" rx="41.8891" ry="18"/>
<text text-anchor="middle" x="414" y="-253.9" style="font-family:Times New Roman;font-size:14.00;">Assocs</text>
</g>
<!-- u18&#45;&gt;u11 -->
<g id="edge19" class="edge"><title>u18&#45;&gt;u11</title>
<path style="fill:none;stroke:black;" d="M840,-395C776,-376 644,-338 529,-317 501,-311 491,-321 465,-309 453,-303 442,-293 433,-283"/>
<polygon style="fill:black;stroke:black;" points="435.8,-280.9 427,-275 430.2,-285.1 435.8,-280.9"/>
</g>
<!-- u18&#45;&gt;u8 -->
<g id="edge17" class="edge"><title>u18&#45;&gt;u8</title>
<path style="fill:none;stroke:black;" d="M897,-390C930,-358 994,-286 953,-240 934,-217 742,-198 646,-190"/>
<polygon style="fill:black;stroke:black;" points="646.299,-186.512 636,-189 645.602,-193.478 646.299,-186.512"/>
</g>
<!-- u17 -->
<g id="node16" class="node"><title>u17</title>
<ellipse style="fill:none;stroke:black;" cx="874" cy="-484" rx="54.2008" ry="18"/>
<text text-anchor="middle" x="874" y="-479.9" style="font-family:Times New Roman;font-size:14.00;">Anagrafe</text>
</g>
<!-- u17&#45;&gt;u7 -->
<g id="edge21" class="edge"><title>u17&#45;&gt;u7</title>
<path style="fill:none;stroke:black;" d="M928,-482C1024,-478 1219,-469 1229,-458 1253,-432 1245,-411 1229,-381 1224,-371 1216,-363 1208,-357"/>
<polygon style="fill:black;stroke:black;" points="1209.26,-353.635 1199,-351 1205.38,-359.459 1209.26,-353.635"/>
</g>
<!-- u17&#45;&gt;u4 -->
<g id="edge23" class="edge"><title>u17&#45;&gt;u4</title>
<path style="fill:none;stroke:black;" d="M928,-483C1026,-480 1223,-474 1250,-458 1342,-404 1403,-331 1349,-240 1340,-225 1325,-213 1309,-205"/>
<polygon style="fill:black;stroke:black;" points="1310.56,-201.863 1300,-201 1307.72,-208.26 1310.56,-201.863"/>
</g>
<!-- u17&#45;&gt;u18 -->
<g id="edge33" class="edge"><title>u17&#45;&gt;u18</title>
<path style="fill:none;stroke:black;" d="M875,-466C876,-457 876,-445 876,-435"/>
<polygon style="fill:black;stroke:black;" points="879.488,-435.299 877,-425 872.522,-434.602 879.488,-435.299"/>
</g>
<!-- u12 -->
<g id="node21" class="node"><title>u12</title>
<ellipse style="fill:none;stroke:black;" cx="285" cy="-258" rx="68.7933" ry="18"/>
<text text-anchor="middle" x="285" y="-253.9" style="font-family:Times New Roman;font-size:14.00;">Costruzione</text>
</g>
<!-- u17&#45;&gt;u12 -->
<g id="edge29" class="edge"><title>u17&#45;&gt;u12</title>
<path style="fill:none;stroke:black;" d="M837,-471C830,-469 823,-467 816,-466 786,-460 571,-468 542,-458 441,-421 348,-328 307,-284"/>
<polygon style="fill:black;stroke:black;" points="309.219,-281.221 300,-276 303.951,-285.831 309.219,-281.221"/>
</g>
<!-- u17&#45;&gt;u11 -->
<g id="edge27" class="edge"><title>u17&#45;&gt;u11</title>
<path style="fill:none;stroke:black;" d="M837,-471C830,-469 823,-467 816,-466 786,-460 707,-468 677,-458 573,-421 477,-327 436,-283"/>
<polygon style="fill:black;stroke:black;" points="438.219,-280.221 429,-275 432.951,-284.831 438.219,-280.221"/>
</g>
<!-- u17&#45;&gt;u8 -->
<g id="edge25" class="edge"><title>u17&#45;&gt;u8</title>
<path style="fill:none;stroke:black;" d="M837,-471C830,-469 823,-467 816,-466 772,-458 452,-472 409,-458 304,-422 258,-408 207,-309 194,-281 187,-263 207,-240 229,-215 436,-197 537,-190"/>
<polygon style="fill:black;stroke:black;" points="537.398,-193.478 547,-189 536.701,-186.512 537.398,-193.478"/>
</g>
<!-- u17&#45;&gt;u3 -->
<g id="edge31" class="edge"><title>u17&#45;&gt;u3</title>
<path style="fill:none;stroke:black;" d="M842,-469C835,-466 826,-462 819,-458 706,-397 674,-387 571,-309 561,-301 550,-291 541,-282"/>
<polygon style="fill:black;stroke:black;" points="543.546,-279.596 534,-275 538.596,-284.546 543.546,-279.596"/>
</g>
<!-- u15 -->
<g id="node18" class="node"><title>u15</title>
<ellipse style="fill:none;stroke:black;" cx="891" cy="-258" rx="53.0059" ry="18"/>
<text text-anchor="middle" x="891" y="-253.9" style="font-family:Times New Roman;font-size:14.00;">TreeLogs</text>
</g>
<!-- u14 -->
<g id="node19" class="node"><title>u14</title>
<ellipse style="fill:none;stroke:black;" cx="789" cy="-258" rx="30.7734" ry="18"/>
<text text-anchor="middle" x="789" y="-253.9" style="font-family:Times New Roman;font-size:14.00;">Lib1</text>
</g>
<!-- u13 -->
<g id="node20" class="node"><title>u13</title>
<ellipse style="fill:none;stroke:black;" cx="709" cy="-258" rx="30.7734" ry="18"/>
<text text-anchor="middle" x="709" y="-253.9" style="font-family:Times New Roman;font-size:14.00;">Lib0</text>
</g>
<!-- u12&#45;&gt;u8 -->
<g id="edge35" class="edge"><title>u12&#45;&gt;u8</title>
<path style="fill:none;stroke:black;" d="M336,-246C394,-232 487,-211 543,-197"/>
<polygon style="fill:black;stroke:black;" points="543.881,-200.393 553,-195 542.508,-193.529 543.881,-200.393"/>
</g>
</g>
</svg>
