<?xml version="1.0" encoding="UTF-8" standalone="no"?>
<!DOCTYPE svg PUBLIC "-//W3C//DTD SVG 1.0//EN"
 "http://www.w3.org/TR/2001/REC-SVG-20010904/DTD/svg10.dtd" [
 <!ATTLIST svg xmlns:xlink CDATA #FIXED "http://www.w3.org/1999/xlink">
]>
<!-- Generated by Graphviz version 2.20.2 (Wed Sep 16 11:12:21 UTC 2009)
     For user: (paolino) paolino,,, -->
<!-- Title: G Pages: 1 -->
<svg width="3196pt" height="590pt"
 viewBox="0.00 0.00 3196.00 590.00" xmlns="http://www.w3.org/2000/svg" xmlns:xlink="http://www.w3.org/1999/xlink">
<g id="graph0" class="graph" transform="scale(1 1) rotate(0) translate(4 586)">
<title>G</title>
<polygon style="fill:white;stroke:white;" points="-4,4 -4,-586 3192,-586 3192,4 -4,4"/>
<g id="cluster2" class="cluster"><title>cluster_0</title>
<polygon style="fill:#ccffcc;stroke:#ccffcc;" points="326,-88 326,-538 932,-538 932,-88 326,-88"/>
<text text-anchor="middle" x="629" y="-521.9" style="font-family:Times New Roman;font-size:14.00;">Core</text>
</g>
<g id="cluster3" class="cluster"><title>cluster_1</title>
<polygon style="fill:#ccffcc;stroke:#ccffcc;" points="1236,-173 1236,-538 1814,-538 1814,-173 1236,-173"/>
<text text-anchor="middle" x="1525" y="-521.9" style="font-family:Times New Roman;font-size:14.00;">Eventi</text>
</g>
<g id="cluster4" class="cluster"><title>cluster_2</title>
<polygon style="fill:#ccffcc;stroke:#ccffcc;" points="1596,-16 1596,-165 2934,-165 2934,-16 1596,-16"/>
<text text-anchor="middle" x="2265" y="-148.9" style="font-family:Times New Roman;font-size:14.00;">Lib</text>
</g>
<!-- u33 -->
<g id="node1" class="node"><title>u33</title>
<ellipse style="fill:none;stroke:black;" cx="854" cy="-564" rx="43.7776" ry="18"/>
<text text-anchor="middle" x="854" y="-559.9" style="font-family:Times New Roman;font-size:14.00;">Logger</text>
</g>
<!-- u0 -->
<g id="node2" class="node"><title>u0</title>
<ellipse style="fill:none;stroke:black;" cx="950" cy="-564" rx="34.0492" ry="18"/>
<text text-anchor="middle" x="950" y="-559.9" style="font-family:Times New Roman;font-size:14.00;">Main</text>
</g>
<!-- u23 -->
<g id="node6" class="node"><title>u23</title>
<ellipse style="fill:none;stroke:black;" cx="529" cy="-487" rx="84.7756" ry="18"/>
<text text-anchor="middle" x="529" y="-482.9" style="font-family:Times New Roman;font-size:14.00;">Aggiornamento</text>
</g>
<!-- u0&#45;&gt;u23 -->
<g id="edge213" class="edge"><title>u0&#45;&gt;u23</title>
<path style="fill:none;stroke:black;" d="M925,-552C920,-549 913,-547 907,-546 846,-532 684,-554 623,-538 602,-532 580,-520 563,-510"/>
<polygon style="fill:black;stroke:black;" points="564.262,-506.635 554,-504 560.379,-512.459 564.262,-506.635"/>
</g>
<!-- u22 -->
<g id="node7" class="node"><title>u22</title>
<ellipse style="fill:none;stroke:black;" cx="399" cy="-487" rx="27.1004" ry="18"/>
<text text-anchor="middle" x="399" y="-482.9" style="font-family:Times New Roman;font-size:14.00;">File</text>
</g>
<!-- u0&#45;&gt;u22 -->
<g id="edge209" class="edge"><title>u0&#45;&gt;u22</title>
<path style="fill:none;stroke:black;" d="M925,-552C920,-549 913,-547 907,-546 882,-540 459,-550 435,-538 425,-533 417,-523 411,-514"/>
<polygon style="fill:black;stroke:black;" points="413.916,-512.042 406,-505 407.797,-515.441 413.916,-512.042"/>
</g>
<!-- u13 -->
<g id="node8" class="node"><title>u13</title>
<ellipse style="fill:none;stroke:black;" cx="855" cy="-114" rx="68.7933" ry="18"/>
<text text-anchor="middle" x="855" y="-109.9" style="font-family:Times New Roman;font-size:14.00;">Costruzione</text>
</g>
<!-- u0&#45;&gt;u13 -->
<g id="edge211" class="edge"><title>u0&#45;&gt;u13</title>
<path style="fill:none;stroke:black;" d="M925,-552C920,-549 913,-547 907,-546 885,-541 104,-551 85,-538 38,-504 42,-472 42,-415 42,-415 42,-415 42,-271 42,-145 185,-197 308,-173 358,-163 487,-169 537,-165 625,-156 726,-139 790,-127"/>
<polygon style="fill:black;stroke:black;" points="790.881,-130.393 800,-125 789.508,-123.529 790.881,-130.393"/>
</g>
<!-- u12 -->
<g id="node9" class="node"><title>u12</title>
<ellipse style="fill:none;stroke:black;" cx="887" cy="-199" rx="37.0233" ry="18"/>
<text text-anchor="middle" x="887" y="-194.9" style="font-family:Times New Roman;font-size:14.00;">Patch</text>
</g>
<!-- u0&#45;&gt;u12 -->
<g id="edge207" class="edge"><title>u0&#45;&gt;u12</title>
<path style="fill:none;stroke:black;" d="M925,-552C920,-549 913,-547 907,-546 889,-542 232,-550 217,-538 175,-502 194,-470 194,-415 194,-415 194,-415 194,-343 194,-316 226,-331 251,-325 392,-287 428,-278 571,-253 691,-231 724,-247 841,-217 844,-216 847,-215 849,-214"/>
<polygon style="fill:black;stroke:black;" points="850.427,-217.226 859,-211 848.416,-210.521 850.427,-217.226"/>
</g>
<!-- u9 -->
<g id="node10" class="node"><title>u9</title>
<ellipse style="fill:none;stroke:black;" cx="836" cy="-415" rx="68.7933" ry="18"/>
<text text-anchor="middle" x="836" y="-410.9" style="font-family:Times New Roman;font-size:14.00;">Inserimento</text>
</g>
<!-- u0&#45;&gt;u9 -->
<g id="edge201" class="edge"><title>u0&#45;&gt;u9</title>
<path style="fill:none;stroke:black;" d="M925,-552C920,-549 913,-547 907,-546 893,-542 374,-548 363,-538 342,-516 343,-491 363,-469 389,-440 630,-425 758,-418"/>
<polygon style="fill:black;stroke:black;" points="758,-421.5 768,-418 758,-414.5 758,-421.5"/>
</g>
<!-- u7 -->
<g id="node12" class="node"><title>u7</title>
<ellipse style="fill:none;stroke:black;" cx="586" cy="-199" rx="45.8622" ry="18"/>
<text text-anchor="middle" x="586" y="-194.9" style="font-family:Times New Roman;font-size:14.00;">Parsing</text>
</g>
<!-- u0&#45;&gt;u7 -->
<g id="edge205" class="edge"><title>u0&#45;&gt;u7</title>
<path style="fill:none;stroke:black;" d="M925,-552C920,-549 913,-547 907,-546 888,-541 203,-550 187,-538 143,-503 156,-471 156,-415 156,-415 156,-415 156,-343 156,-303 423,-237 536,-210"/>
<polygon style="fill:black;stroke:black;" points="536.881,-213.393 546,-208 535.508,-206.529 536.881,-213.393"/>
</g>
<!-- u6 -->
<g id="node13" class="node"><title>u6</title>
<ellipse style="fill:none;stroke:black;" cx="408" cy="-199" rx="54.2008" ry="18"/>
<text text-anchor="middle" x="408" y="-194.9" style="font-family:Times New Roman;font-size:14.00;">Contesto</text>
</g>
<!-- u0&#45;&gt;u6 -->
<g id="edge199" class="edge"><title>u0&#45;&gt;u6</title>
<path style="fill:none;stroke:black;" d="M925,-552C920,-549 913,-547 907,-546 887,-541 170,-548 151,-538 97,-506 80,-478 80,-415 80,-415 80,-415 80,-343 80,-284 260,-234 353,-211"/>
<polygon style="fill:black;stroke:black;" points="353.881,-214.393 363,-209 352.508,-207.529 353.881,-214.393"/>
</g>
<!-- u5 -->
<g id="node14" class="node"><title>u5</title>
<ellipse style="fill:none;stroke:black;" cx="672" cy="-271" rx="91.9198" ry="18"/>
<text text-anchor="middle" x="672" y="-266.9" style="font-family:Times New Roman;font-size:14.00;">Programmazione</text>
</g>
<!-- u0&#45;&gt;u5 -->
<g id="edge203" class="edge"><title>u0&#45;&gt;u5</title>
<path style="fill:none;stroke:black;" d="M925,-552C920,-549 913,-547 907,-546 890,-542 269,-550 256,-538 189,-469 216,-380 294,-325 337,-294 475,-281 572,-276"/>
<polygon style="fill:black;stroke:black;" points="572.398,-279.478 582,-275 571.701,-272.512 572.398,-279.478"/>
</g>
<!-- u3 -->
<g id="node15" class="node"><title>u3</title>
<ellipse style="fill:none;stroke:black;" cx="687" cy="-487" rx="54.8957" ry="18"/>
<text text-anchor="middle" x="687" y="-482.9" style="font-family:Times New Roman;font-size:14.00;">Controllo</text>
</g>
<!-- u0&#45;&gt;u3 -->
<g id="edge197" class="edge"><title>u0&#45;&gt;u3</title>
<path style="fill:none;stroke:black;" d="M925,-552C920,-549 913,-547 907,-546 874,-538 784,-550 751,-538 736,-532 721,-521 710,-511"/>
<polygon style="fill:black;stroke:black;" points="712.546,-508.596 703,-504 707.596,-513.546 712.546,-508.596"/>
</g>
<!-- u2 -->
<g id="node16" class="node"><title>u2</title>
<ellipse style="fill:none;stroke:black;" cx="491" cy="-114" rx="37.0233" ry="18"/>
<text text-anchor="middle" x="491" y="-109.9" style="font-family:Times New Roman;font-size:14.00;">Types</text>
</g>
<!-- u0&#45;&gt;u2 -->
<g id="edge195" class="edge"><title>u0&#45;&gt;u2</title>
<path style="fill:none;stroke:black;" d="M925,-552C920,-549 913,-547 907,-546 884,-541 60,-552 40,-538 -5,-503 4,-471 4,-415 4,-415 4,-415 4,-271 4,-221 15,-201 55,-173 117,-129 345,-118 444,-115"/>
<polygon style="fill:black;stroke:black;" points="444,-118.5 454,-115 444,-111.5 444,-118.5"/>
</g>
<!-- u29 -->
<g id="node18" class="node"><title>u29</title>
<ellipse style="fill:none;stroke:black;" cx="1662" cy="-487" rx="43.7776" ry="18"/>
<text text-anchor="middle" x="1662" y="-482.9" style="font-family:Times New Roman;font-size:14.00;">Ordine</text>
</g>
<!-- u0&#45;&gt;u29 -->
<g id="edge233" class="edge"><title>u0&#45;&gt;u29</title>
<path style="fill:none;stroke:black;" d="M984,-563C1116,-561 1586,-551 1614,-538 1626,-533 1637,-522 1645,-513"/>
<polygon style="fill:black;stroke:black;" points="1647.8,-515.1 1651,-505 1642.2,-510.9 1647.8,-515.1"/>
</g>
<!-- u28 -->
<g id="node19" class="node"><title>u28</title>
<ellipse style="fill:none;stroke:black;" cx="1748" cy="-415" rx="52.1162" ry="18"/>
<text text-anchor="middle" x="1748" y="-410.9" style="font-family:Times New Roman;font-size:14.00;">Impegno</text>
</g>
<!-- u0&#45;&gt;u28 -->
<g id="edge231" class="edge"><title>u0&#45;&gt;u28</title>
<path style="fill:none;stroke:black;" d="M984,-563C1131,-561 1701,-549 1715,-538 1743,-515 1749,-471 1749,-443"/>
<polygon style="fill:black;stroke:black;" points="1752.5,-443 1749,-433 1745.5,-443 1752.5,-443"/>
</g>
<!-- u27 -->
<g id="node20" class="node"><title>u27</title>
<ellipse style="fill:none;stroke:black;" cx="1731" cy="-343" rx="55.0898" ry="18"/>
<text text-anchor="middle" x="1731" y="-338.9" style="font-family:Times New Roman;font-size:14.00;">Accredito</text>
</g>
<!-- u0&#45;&gt;u27 -->
<g id="edge229" class="edge"><title>u0&#45;&gt;u27</title>
<path style="fill:none;stroke:black;" d="M984,-562C1049,-558 1189,-549 1236,-538 1414,-496 1610,-404 1692,-363"/>
<polygon style="fill:black;stroke:black;" points="1693.96,-365.916 1701,-358 1690.56,-359.797 1693.96,-365.916"/>
</g>
<!-- u26 -->
<g id="node21" class="node"><title>u26</title>
<ellipse style="fill:none;stroke:black;" cx="1355" cy="-343" rx="91.2232" ry="18"/>
<text text-anchor="middle" x="1355" y="-338.9" style="font-family:Times New Roman;font-size:14.00;">Amministrazione</text>
</g>
<!-- u0&#45;&gt;u26 -->
<g id="edge225" class="edge"><title>u0&#45;&gt;u26</title>
<path style="fill:none;stroke:black;" d="M984,-561C1034,-557 1124,-547 1135,-538 1187,-495 1136,-443 1183,-397 1198,-382 1243,-368 1283,-358"/>
<polygon style="fill:black;stroke:black;" points="1283.88,-361.393 1293,-356 1282.51,-354.529 1283.88,-361.393"/>
</g>
<!-- u20 -->
<g id="node22" class="node"><title>u20</title>
<ellipse style="fill:none;stroke:black;" cx="1551" cy="-343" rx="86.8603" ry="18"/>
<text text-anchor="middle" x="1551" y="-338.9" style="font-family:Times New Roman;font-size:14.00;">Sincronizzatore</text>
</g>
<!-- u0&#45;&gt;u20 -->
<g id="edge235" class="edge"><title>u0&#45;&gt;u20</title>
<path style="fill:none;stroke:black;" d="M984,-561C1035,-557 1130,-549 1161,-538 1280,-498 1292,-450 1405,-397 1433,-384 1466,-371 1493,-361"/>
<polygon style="fill:black;stroke:black;" points="1494.43,-364.226 1503,-358 1492.42,-357.521 1494.43,-364.226"/>
</g>
<!-- u17 -->
<g id="node24" class="node"><title>u17</title>
<ellipse style="fill:none;stroke:black;" cx="1551" cy="-271" rx="54.2008" ry="18"/>
<text text-anchor="middle" x="1551" y="-266.9" style="font-family:Times New Roman;font-size:14.00;">Anagrafe</text>
</g>
<!-- u0&#45;&gt;u17 -->
<g id="edge227" class="edge"><title>u0&#45;&gt;u17</title>
<path style="fill:none;stroke:black;" d="M925,-552C920,-549 913,-547 907,-546 892,-542 334,-549 322,-538 256,-470 257,-393 322,-325 343,-303 1237,-279 1487,-272"/>
<polygon style="fill:black;stroke:black;" points="1487,-275.5 1497,-272 1487,-268.5 1487,-275.5"/>
</g>
<!-- u25 -->
<g id="node27" class="node"><title>u25</title>
<ellipse style="fill:none;stroke:black;" cx="1943" cy="-114" rx="53.0059" ry="18"/>
<text text-anchor="middle" x="1943" y="-109.9" style="font-family:Times New Roman;font-size:14.00;">TreeLogs</text>
</g>
<!-- u0&#45;&gt;u25 -->
<g id="edge221" class="edge"><title>u0&#45;&gt;u25</title>
<path style="fill:none;stroke:black;" d="M949,-546C947,-495 943,-354 974,-325 1045,-258 1758,-338 1840,-289 1895,-256 1924,-182 1936,-142"/>
<polygon style="fill:black;stroke:black;" points="1939.48,-142.584 1939,-132 1932.77,-140.573 1939.48,-142.584"/>
</g>
<!-- u24 -->
<g id="node28" class="node"><title>u24</title>
<ellipse style="fill:none;stroke:black;" cx="2062" cy="-114" rx="48.1403" ry="18"/>
<text text-anchor="middle" x="2062" y="-109.9" style="font-family:Times New Roman;font-size:14.00;">Console</text>
</g>
<!-- u0&#45;&gt;u24 -->
<g id="edge215" class="edge"><title>u0&#45;&gt;u24</title>
<path style="fill:none;stroke:black;" d="M960,-547C961,-544 962,-541 963,-538 996,-446 938,-387 1012,-325 1086,-263 1785,-325 1873,-289 1949,-257 2014,-181 2044,-140"/>
<polygon style="fill:black;stroke:black;" points="2046.8,-142.1 2050,-132 2041.2,-137.9 2046.8,-142.1"/>
</g>
<!-- u15 -->
<g id="node32" class="node"><title>u15</title>
<ellipse style="fill:none;stroke:black;" cx="2182" cy="-114" rx="54.2008" ry="18"/>
<text text-anchor="middle" x="2182" y="-109.9" style="font-family:Times New Roman;font-size:14.00;">Firmabile</text>
</g>
<!-- u0&#45;&gt;u15 -->
<g id="edge223" class="edge"><title>u0&#45;&gt;u15</title>
<path style="fill:none;stroke:black;" d="M971,-550C975,-546 980,-542 984,-538 1062,-454 1027,-380 1126,-325 1203,-281 1832,-314 1915,-289 2015,-258 2112,-178 2157,-138"/>
<polygon style="fill:black;stroke:black;" points="2159.4,-140.546 2164,-131 2154.45,-135.596 2159.4,-140.546"/>
</g>
<!-- u14 -->
<g id="node33" class="node"><title>u14</title>
<ellipse style="fill:none;stroke:black;" cx="2062" cy="-42" rx="37.0233" ry="18"/>
<text text-anchor="middle" x="2062" y="-37.9" style="font-family:Times New Roman;font-size:14.00;">Passo</text>
</g>
<!-- u0&#45;&gt;u14 -->
<g id="edge217" class="edge"><title>u0&#45;&gt;u14</title>
<path style="fill:none;stroke:black;" d="M984,-563C1261,-559 3124,-527 3124,-415 3124,-415 3124,-415 3124,-199 3124,-98 3022,-116 2926,-88 2847,-64 2278,-48 2109,-43"/>
<polygon style="fill:black;stroke:black;" points="2109,-39.5001 2099,-43 2109,-46.5001 2109,-39.5001"/>
</g>
<!-- u0&#45;&gt;u14 -->
<g id="edge219" class="edge"><title>u0&#45;&gt;u14</title>
<path style="fill:none;stroke:black;" d="M984,-564C1263,-559 3142,-527 3142,-415 3142,-415 3142,-415 3142,-199 3142,-98 3040,-116 2944,-88 2864,-64 2281,-48 2109,-43"/>
<polygon style="fill:black;stroke:black;" points="2109,-39.5001 2099,-43 2109,-46.5001 2109,-39.5001"/>
</g>
<!-- u1 -->
<g id="node37" class="node"><title>u1</title>
<ellipse style="fill:none;stroke:black;" cx="2524" cy="-114" rx="55.7874" ry="18"/>
<text text-anchor="middle" x="2524" y="-109.9" style="font-family:Times New Roman;font-size:14.00;">Response</text>
</g>
<!-- u0&#45;&gt;u1 -->
<g id="edge193" class="edge"><title>u0&#45;&gt;u1</title>
<path style="fill:none;stroke:black;" d="M981,-556C994,-552 1009,-546 1021,-538 1134,-465 1111,-378 1232,-325 1401,-250 1880,-319 2061,-289 2244,-258 2296,-252 2459,-165 2473,-158 2486,-147 2497,-138"/>
<polygon style="fill:black;stroke:black;" points="2499.78,-140.219 2505,-131 2495.17,-134.951 2499.78,-140.219"/>
</g>
<!-- u31 -->
<g id="node4" class="node"><title>u31</title>
<ellipse style="fill:none;stroke:black;" cx="741" cy="-199" rx="91.2232" ry="18"/>
<text text-anchor="middle" x="741" y="-194.9" style="font-family:Times New Roman;font-size:14.00;">Amministrazione</text>
</g>
<!-- u31&#45;&gt;u13 -->
<g id="edge5" class="edge"><title>u31&#45;&gt;u13</title>
<path style="fill:none;stroke:black;" d="M764,-182C781,-169 805,-151 824,-137"/>
<polygon style="fill:black;stroke:black;" points="826.1,-139.8 832,-131 821.9,-134.2 826.1,-139.8"/>
</g>
<!-- u30 -->
<g id="node5" class="node"><title>u30</title>
<ellipse style="fill:none;stroke:black;" cx="841" cy="-487" rx="80.8024" ry="18"/>
<text text-anchor="middle" x="841" y="-482.9" style="font-family:Times New Roman;font-size:14.00;">Administration</text>
</g>
<!-- u13&#45;&gt;u14 -->
<g id="edge137" class="edge"><title>u13&#45;&gt;u14</title>
<path style="fill:none;stroke:black;" d="M922,-110C1142,-97 1829,-56 2015,-45"/>
<polygon style="fill:black;stroke:black;" points="2015.4,-48.4778 2025,-44 2014.7,-41.5125 2015.4,-48.4778"/>
</g>
<!-- u12&#45;&gt;u13 -->
<g id="edge141" class="edge"><title>u12&#45;&gt;u13</title>
<path style="fill:none;stroke:black;" d="M880,-181C876,-170 870,-155 866,-142"/>
<polygon style="fill:black;stroke:black;" points="868.964,-139.985 862,-132 862.464,-142.585 868.964,-139.985"/>
</g>
<!-- u12&#45;&gt;u2 -->
<g id="edge139" class="edge"><title>u12&#45;&gt;u2</title>
<path style="fill:none;stroke:black;" d="M865,-184C858,-180 849,-176 841,-173 814,-163 806,-169 777,-165 691,-152 592,-133 536,-123"/>
<polygon style="fill:black;stroke:black;" points="536.492,-119.529 526,-121 535.119,-126.393 536.492,-119.529"/>
</g>
<!-- u12&#45;&gt;u20 -->
<g id="edge151" class="edge"><title>u12&#45;&gt;u20</title>
<path style="fill:none;stroke:black;" d="M914,-211C960,-231 1053,-269 1136,-289 1275,-321 1314,-303 1455,-325 1463,-326 1471,-327 1479,-329"/>
<polygon style="fill:black;stroke:black;" points="1478.7,-332.488 1489,-330 1479.4,-325.522 1478.7,-332.488"/>
</g>
<!-- u12&#45;&gt;u17 -->
<g id="edge149" class="edge"><title>u12&#45;&gt;u17</title>
<path style="fill:none;stroke:black;" d="M923,-203C1031,-215 1353,-249 1489,-264"/>
<polygon style="fill:black;stroke:black;" points="1488.7,-267.488 1499,-265 1489.4,-260.522 1488.7,-267.488"/>
</g>
<!-- u16 -->
<g id="node31" class="node"><title>u16</title>
<ellipse style="fill:none;stroke:black;" cx="1689" cy="-114" rx="84.7756" ry="18"/>
<text text-anchor="middle" x="1689" y="-109.9" style="font-family:Times New Roman;font-size:14.00;">Aggiornamento</text>
</g>
<!-- u12&#45;&gt;u16 -->
<g id="edge147" class="edge"><title>u12&#45;&gt;u16</title>
<path style="fill:none;stroke:black;" d="M923,-195C1044,-182 1430,-142 1603,-123"/>
<polygon style="fill:black;stroke:black;" points="1603.4,-126.478 1613,-122 1602.7,-119.512 1603.4,-126.478"/>
</g>
<!-- u12&#45;&gt;u15 -->
<g id="edge145" class="edge"><title>u12&#45;&gt;u15</title>
<path style="fill:none;stroke:black;" d="M923,-195C986,-189 1120,-177 1232,-173 1257,-171 2096,-173 2119,-165 2134,-159 2149,-148 2160,-138"/>
<polygon style="fill:black;stroke:black;" points="2162.4,-140.546 2167,-131 2157.45,-135.596 2162.4,-140.546"/>
</g>
<!-- u10 -->
<g id="node35" class="node"><title>u10</title>
<ellipse style="fill:none;stroke:black;" cx="2299" cy="-114" rx="45.1673" ry="18"/>
<text text-anchor="middle" x="2299" y="-109.9" style="font-family:Times New Roman;font-size:14.00;">Aspetti</text>
</g>
<!-- u12&#45;&gt;u10 -->
<g id="edge143" class="edge"><title>u12&#45;&gt;u10</title>
<path style="fill:none;stroke:black;" d="M923,-195C986,-189 1120,-177 1232,-173 1261,-171 2219,-175 2245,-165 2258,-159 2271,-149 2280,-139"/>
<polygon style="fill:black;stroke:black;" points="2282.8,-141.1 2286,-131 2277.2,-136.9 2282.8,-141.1"/>
</g>
<!-- u8 -->
<g id="node11" class="node"><title>u8</title>
<ellipse style="fill:none;stroke:black;" cx="482" cy="-343" rx="34.9399" ry="18"/>
<text text-anchor="middle" x="482" y="-338.9" style="font-family:Times New Roman;font-size:14.00;">Nodo</text>
</g>
<!-- u9&#45;&gt;u8 -->
<g id="edge165" class="edge"><title>u9&#45;&gt;u8</title>
<path style="fill:none;stroke:black;" d="M774,-407C712,-398 614,-383 531,-361 527,-360 523,-359 520,-357"/>
<polygon style="fill:black;stroke:black;" points="520.584,-353.521 510,-354 518.573,-360.226 520.584,-353.521"/>
</g>
<!-- u9&#45;&gt;u7 -->
<g id="edge157" class="edge"><title>u9&#45;&gt;u7</title>
<path style="fill:none;stroke:black;" d="M831,-397C821,-359 795,-272 773,-253 728,-212 700,-234 641,-217 638,-216 634,-215 631,-214"/>
<polygon style="fill:black;stroke:black;" points="631.584,-210.521 621,-211 629.573,-217.226 631.584,-210.521"/>
</g>
<!-- u9&#45;&gt;u6 -->
<g id="edge161" class="edge"><title>u9&#45;&gt;u6</title>
<path style="fill:none;stroke:black;" d="M769,-410C662,-402 462,-383 438,-361 429,-352 417,-271 411,-227"/>
<polygon style="fill:black;stroke:black;" points="414.478,-226.602 410,-217 407.512,-227.299 414.478,-226.602"/>
</g>
<!-- u9&#45;&gt;u5 -->
<g id="edge163" class="edge"><title>u9&#45;&gt;u5</title>
<path style="fill:none;stroke:black;" d="M794,-401C772,-392 746,-378 726,-361 707,-343 693,-318 683,-298"/>
<polygon style="fill:black;stroke:black;" points="686.26,-296.717 679,-289 679.863,-299.56 686.26,-296.717"/>
</g>
<!-- u9&#45;&gt;u2 -->
<g id="edge159" class="edge"><title>u9&#45;&gt;u2</title>
<path style="fill:none;stroke:black;" d="M792,-401C736,-382 639,-344 571,-289 539,-262 527,-255 508,-217 498,-193 493,-164 492,-142"/>
<polygon style="fill:black;stroke:black;" points="495.478,-141.602 491,-132 488.512,-142.299 495.478,-141.602"/>
</g>
<!-- u11 -->
<g id="node34" class="node"><title>u11</title>
<ellipse style="fill:none;stroke:black;" cx="1832" cy="-114" rx="39.8056" ry="18"/>
<text text-anchor="middle" x="1832" y="-109.9" style="font-family:Times New Roman;font-size:14.00;">Signal</text>
</g>
<!-- u9&#45;&gt;u11 -->
<g id="edge155" class="edge"><title>u9&#45;&gt;u11</title>
<path style="fill:none;stroke:black;" d="M856,-398C867,-387 882,-374 894,-361 909,-345 907,-334 926,-325 1016,-282 1747,-357 1818,-289 1839,-269 1837,-186 1834,-142"/>
<polygon style="fill:black;stroke:black;" points="1837.5,-142 1834,-132 1830.5,-142 1837.5,-142"/>
</g>
<!-- u9&#45;&gt;u10 -->
<g id="edge153" class="edge"><title>u9&#45;&gt;u10</title>
<path style="fill:none;stroke:black;" d="M870,-399C918,-378 1008,-341 1088,-325 1417,-260 1508,-330 1840,-289 2002,-269 2056,-295 2198,-217 2222,-203 2222,-192 2240,-173 2251,-161 2264,-148 2275,-138"/>
<polygon style="fill:black;stroke:black;" points="2277.4,-140.546 2282,-131 2272.45,-135.596 2277.4,-140.546"/>
</g>
<!-- u8&#45;&gt;u5 -->
<g id="edge169" class="edge"><title>u8&#45;&gt;u5</title>
<path style="fill:none;stroke:black;" d="M510,-332C539,-321 584,-304 619,-291"/>
<polygon style="fill:black;stroke:black;" points="621.015,-293.964 629,-287 618.415,-287.464 621.015,-293.964"/>
</g>
<!-- u8&#45;&gt;u2 -->
<g id="edge167" class="edge"><title>u8&#45;&gt;u2</title>
<path style="fill:none;stroke:black;" d="M483,-325C485,-284 488,-190 490,-142"/>
<polygon style="fill:black;stroke:black;" points="493.5,-142 490,-132 486.5,-142 493.5,-142"/>
</g>
<!-- u6&#45;&gt;u2 -->
<g id="edge171" class="edge"><title>u6&#45;&gt;u2</title>
<path style="fill:none;stroke:black;" d="M425,-182C438,-169 455,-152 468,-137"/>
<polygon style="fill:black;stroke:black;" points="470.404,-139.546 475,-130 465.454,-134.596 470.404,-139.546"/>
</g>
<!-- u5&#45;&gt;u7 -->
<g id="edge177" class="edge"><title>u5&#45;&gt;u7</title>
<path style="fill:none;stroke:black;" d="M651,-253C640,-244 625,-232 613,-222"/>
<polygon style="fill:black;stroke:black;" points="614.831,-218.951 605,-215 610.221,-224.219 614.831,-218.951"/>
</g>
<!-- u5&#45;&gt;u6 -->
<g id="edge175" class="edge"><title>u5&#45;&gt;u6</title>
<path style="fill:none;stroke:black;" d="M618,-256C572,-243 505,-226 460,-213"/>
<polygon style="fill:black;stroke:black;" points="460.584,-209.521 450,-210 458.573,-216.226 460.584,-209.521"/>
</g>
<!-- u5&#45;&gt;u2 -->
<g id="edge173" class="edge"><title>u5&#45;&gt;u2</title>
<path style="fill:none;stroke:black;" d="M607,-258C581,-250 552,-237 531,-217 520,-206 507,-168 499,-142"/>
<polygon style="fill:black;stroke:black;" points="502.226,-140.573 496,-132 495.521,-142.584 502.226,-140.573"/>
</g>
<!-- u3&#45;&gt;u9 -->
<g id="edge191" class="edge"><title>u3&#45;&gt;u9</title>
<path style="fill:none;stroke:black;" d="M718,-472C740,-461 770,-447 794,-435"/>
<polygon style="fill:black;stroke:black;" points="795.283,-438.26 803,-431 792.44,-431.863 795.283,-438.26"/>
</g>
<!-- u3&#45;&gt;u8 -->
<g id="edge185" class="edge"><title>u3&#45;&gt;u8</title>
<path style="fill:none;stroke:black;" d="M645,-475C618,-466 583,-453 556,-433 533,-416 512,-389 499,-369"/>
<polygon style="fill:black;stroke:black;" points="501.459,-366.379 493,-360 495.635,-370.262 501.459,-366.379"/>
</g>
<!-- u3&#45;&gt;u7 -->
<g id="edge189" class="edge"><title>u3&#45;&gt;u7</title>
<path style="fill:none;stroke:black;" d="M672,-470C646,-437 591,-362 571,-289 566,-268 570,-244 576,-227"/>
<polygon style="fill:black;stroke:black;" points="579.479,-227.584 579,-217 572.774,-225.573 579.479,-227.584"/>
</g>
<!-- u3&#45;&gt;u6 -->
<g id="edge187" class="edge"><title>u3&#45;&gt;u6</title>
<path style="fill:none;stroke:black;" d="M646,-475C600,-461 529,-439 517,-433 472,-408 452,-405 425,-361 402,-319 402,-262 404,-227"/>
<polygon style="fill:black;stroke:black;" points="407.488,-227.299 405,-217 400.522,-226.602 407.488,-227.299"/>
</g>
<!-- u3&#45;&gt;u5 -->
<g id="edge183" class="edge"><title>u3&#45;&gt;u5</title>
<path style="fill:none;stroke:black;" d="M686,-469C683,-431 677,-344 674,-299"/>
<polygon style="fill:black;stroke:black;" points="677.478,-298.602 673,-289 670.512,-299.299 677.478,-298.602"/>
</g>
<!-- u3&#45;&gt;u2 -->
<g id="edge181" class="edge"><title>u3&#45;&gt;u2</title>
<path style="fill:none;stroke:black;" d="M646,-475C638,-473 630,-471 623,-469 549,-450 517,-477 453,-433 423,-411 426,-394 408,-361 367,-283 296,-246 345,-173 368,-139 411,-126 444,-119"/>
<polygon style="fill:black;stroke:black;" points="444.881,-122.393 454,-117 443.508,-115.529 444.881,-122.393"/>
</g>
<!-- u4 -->
<g id="node36" class="node"><title>u4</title>
<ellipse style="fill:none;stroke:black;" cx="2406" cy="-114" rx="43.7776" ry="18"/>
<text text-anchor="middle" x="2406" y="-109.9" style="font-family:Times New Roman;font-size:14.00;">Prioriti</text>
</g>
<!-- u3&#45;&gt;u4 -->
<g id="edge179" class="edge"><title>u3&#45;&gt;u4</title>
<path style="fill:none;stroke:black;" d="M728,-475C736,-473 744,-471 751,-469 823,-450 845,-458 914,-433 962,-415 1067,-338 1116,-325 1302,-274 1792,-319 1981,-289 2068,-275 2281,-213 2353,-165 2364,-157 2375,-148 2384,-138"/>
<polygon style="fill:black;stroke:black;" points="2386.4,-140.546 2391,-131 2381.45,-135.596 2386.4,-140.546"/>
</g>
<!-- u29&#45;&gt;u13 -->
<g id="edge15" class="edge"><title>u29&#45;&gt;u13</title>
<path style="fill:none;stroke:black;" d="M1618,-486C1421,-484 626,-470 521,-433 471,-414 461,-400 424,-361 361,-292 269,-239 333,-173 341,-164 526,-166 537,-165 625,-156 726,-139 790,-127"/>
<polygon style="fill:black;stroke:black;" points="790.881,-130.393 800,-125 789.508,-123.529 790.881,-130.393"/>
</g>
<!-- u29&#45;&gt;u9 -->
<g id="edge21" class="edge"><title>u29&#45;&gt;u9</title>
<path style="fill:none;stroke:black;" d="M1619,-483C1486,-471 1081,-436 912,-422"/>
<polygon style="fill:black;stroke:black;" points="912.299,-418.512 902,-421 911.602,-425.478 912.299,-418.512"/>
</g>
<!-- u29&#45;&gt;u7 -->
<g id="edge17" class="edge"><title>u29&#45;&gt;u7</title>
<path style="fill:none;stroke:black;" d="M1618,-486C1408,-481 514,-454 438,-361 395,-306 489,-247 547,-218"/>
<polygon style="fill:black;stroke:black;" points="548.958,-220.916 556,-213 545.559,-214.797 548.958,-220.916"/>
</g>
<!-- u29&#45;&gt;u5 -->
<g id="edge19" class="edge"><title>u29&#45;&gt;u5</title>
<path style="fill:none;stroke:black;" d="M1620,-481C1513,-464 1221,-418 981,-361 893,-339 792,-308 730,-289"/>
<polygon style="fill:black;stroke:black;" points="730.584,-285.521 720,-286 728.573,-292.226 730.584,-285.521"/>
</g>
<!-- u29&#45;&gt;u28 -->
<g id="edge27" class="edge"><title>u29&#45;&gt;u28</title>
<path style="fill:none;stroke:black;" d="M1682,-471C1693,-461 1708,-449 1720,-438"/>
<polygon style="fill:black;stroke:black;" points="1722.1,-440.8 1728,-432 1717.9,-435.2 1722.1,-440.8"/>
</g>
<!-- u29&#45;&gt;u27 -->
<g id="edge25" class="edge"><title>u29&#45;&gt;u27</title>
<path style="fill:none;stroke:black;" d="M1665,-469C1668,-450 1675,-420 1687,-397 1692,-386 1700,-376 1707,-368"/>
<polygon style="fill:black;stroke:black;" points="1710.05,-369.831 1714,-360 1704.78,-365.221 1710.05,-369.831"/>
</g>
<!-- u29&#45;&gt;u17 -->
<g id="edge23" class="edge"><title>u29&#45;&gt;u17</title>
<path style="fill:none;stroke:black;" d="M1665,-469C1671,-437 1677,-369 1647,-325 1636,-308 1618,-296 1601,-287"/>
<polygon style="fill:black;stroke:black;" points="1601.58,-283.464 1591,-283 1598.98,-289.964 1601.58,-283.464"/>
</g>
<!-- u18 -->
<g id="node30" class="node"><title>u18</title>
<ellipse style="fill:none;stroke:black;" cx="2640" cy="-114" rx="41.8891" ry="18"/>
<text text-anchor="middle" x="2640" y="-109.9" style="font-family:Times New Roman;font-size:14.00;">Assocs</text>
</g>
<!-- u29&#45;&gt;u18 -->
<g id="edge11" class="edge"><title>u29&#45;&gt;u18</title>
<path style="fill:none;stroke:black;" d="M1706,-487C1844,-485 2277,-476 2633,-433 2820,-410 3048,-531 3048,-343 3048,-343 3048,-343 3048,-271 3048,-220 3328,-285 2823,-173 2794,-166 2717,-177 2691,-165 2679,-159 2667,-149 2659,-140"/>
<polygon style="fill:black;stroke:black;" points="2661.22,-137.221 2652,-132 2655.95,-141.831 2661.22,-137.221"/>
</g>
<!-- u29&#45;&gt;u10 -->
<g id="edge7" class="edge"><title>u29&#45;&gt;u10</title>
<path style="fill:none;stroke:black;" d="M1705,-483C1855,-470 2350,-416 2424,-289 2450,-244 2460,-211 2426,-173 2415,-160 2368,-171 2353,-165 2340,-159 2328,-148 2319,-138"/>
<polygon style="fill:black;stroke:black;" points="2321.55,-135.596 2312,-131 2316.6,-140.546 2321.55,-135.596"/>
</g>
<!-- u29&#45;&gt;u4 -->
<g id="edge9" class="edge"><title>u29&#45;&gt;u4</title>
<path style="fill:none;stroke:black;" d="M1706,-485C1793,-482 1995,-469 2160,-433 2257,-411 2287,-413 2370,-361 2408,-337 2421,-329 2442,-289 2456,-260 2450,-249 2453,-217 2454,-197 2459,-191 2453,-173 2448,-161 2440,-148 2431,-138"/>
<polygon style="fill:black;stroke:black;" points="2433.55,-135.596 2424,-131 2428.6,-140.546 2433.55,-135.596"/>
</g>
<!-- u29&#45;&gt;u1 -->
<g id="edge13" class="edge"><title>u29&#45;&gt;u1</title>
<path style="fill:none;stroke:black;" d="M1706,-485C1937,-472 3010,-410 3010,-343 3010,-343 3010,-343 3010,-271 3010,-78 2762,-249 2589,-165 2575,-158 2561,-147 2550,-138"/>
<polygon style="fill:black;stroke:black;" points="2551.83,-134.951 2542,-131 2547.22,-140.219 2551.83,-134.951"/>
</g>
<!-- u28&#45;&gt;u13 -->
<g id="edge39" class="edge"><title>u28&#45;&gt;u13</title>
<path style="fill:none;stroke:black;" d="M1696,-414C1529,-411 996,-393 571,-289 469,-263 408,-302 345,-217 334,-201 332,-187 345,-173 353,-165 527,-166 537,-165 625,-156 726,-139 790,-127"/>
<polygon style="fill:black;stroke:black;" points="790.881,-130.393 800,-125 789.508,-123.529 790.881,-130.393"/>
</g>
<!-- u28&#45;&gt;u9 -->
<g id="edge45" class="edge"><title>u28&#45;&gt;u9</title>
<path style="fill:none;stroke:black;" d="M1696,-415C1435,-415 1176,-415 915,-415"/>
<polygon style="fill:black;stroke:black;" points="915,-411.5 905,-415 915,-418.5 915,-411.5"/>
</g>
<!-- u28&#45;&gt;u7 -->
<g id="edge41" class="edge"><title>u28&#45;&gt;u7</title>
<path style="fill:none;stroke:black;" d="M1696,-412C1604,-407 1405,-393 1240,-361 1184,-349 1172,-338 1115,-325 1033,-305 1010,-307 927,-289 866,-275 852,-268 790,-253 724,-236 707,-235 641,-217 638,-216 634,-215 631,-214"/>
<polygon style="fill:black;stroke:black;" points="631.584,-210.521 621,-211 629.573,-217.226 631.584,-210.521"/>
</g>
<!-- u28&#45;&gt;u5 -->
<g id="edge43" class="edge"><title>u28&#45;&gt;u5</title>
<path style="fill:none;stroke:black;" d="M1697,-411C1600,-403 1384,-385 1202,-361 1040,-339 851,-305 748,-286"/>
<polygon style="fill:black;stroke:black;" points="748.492,-282.529 738,-284 747.119,-289.393 748.492,-282.529"/>
</g>
<!-- u28&#45;&gt;u27 -->
<g id="edge51" class="edge"><title>u28&#45;&gt;u27</title>
<path style="fill:none;stroke:black;" d="M1744,-397C1742,-389 1740,-380 1738,-371"/>
<polygon style="fill:black;stroke:black;" points="1741.23,-369.573 1735,-361 1734.52,-371.584 1741.23,-369.573"/>
</g>
<!-- u19 -->
<g id="node23" class="node"><title>u19</title>
<ellipse style="fill:none;stroke:black;" cx="1333" cy="-199" rx="50.0315" ry="18"/>
<text text-anchor="middle" x="1333" y="-194.9" style="font-family:Times New Roman;font-size:14.00;">Servizio</text>
</g>
<!-- u28&#45;&gt;u19 -->
<g id="edge47" class="edge"><title>u28&#45;&gt;u19</title>
<path style="fill:none;stroke:black;" d="M1696,-413C1576,-408 1284,-393 1255,-361 1218,-319 1271,-257 1306,-223"/>
<polygon style="fill:black;stroke:black;" points="1308.78,-225.219 1314,-216 1304.17,-219.951 1308.78,-225.219"/>
</g>
<!-- u28&#45;&gt;u17 -->
<g id="edge49" class="edge"><title>u28&#45;&gt;u17</title>
<path style="fill:none;stroke:black;" d="M1768,-398C1788,-379 1814,-348 1795,-325 1773,-297 1678,-282 1614,-276"/>
<polygon style="fill:black;stroke:black;" points="1614.3,-272.512 1604,-275 1613.6,-279.478 1614.3,-272.512"/>
</g>
<!-- u21 -->
<g id="node29" class="node"><title>u21</title>
<ellipse style="fill:none;stroke:black;" cx="2769" cy="-114" rx="68.7933" ry="18"/>
<text text-anchor="middle" x="2769" y="-109.9" style="font-family:Times New Roman;font-size:14.00;">Costruzione</text>
</g>
<!-- u28&#45;&gt;u21 -->
<g id="edge31" class="edge"><title>u28&#45;&gt;u21</title>
<path style="fill:none;stroke:black;" d="M1800,-413C1946,-407 2358,-389 2490,-361 2674,-321 2781,-371 2890,-217 2901,-201 2902,-188 2890,-173 2877,-158 2865,-172 2847,-165 2830,-158 2812,-147 2798,-137"/>
<polygon style="fill:black;stroke:black;" points="2800.1,-134.2 2790,-131 2795.9,-139.8 2800.1,-134.2"/>
</g>
<!-- u28&#45;&gt;u18 -->
<g id="edge35" class="edge"><title>u28&#45;&gt;u18</title>
<path style="fill:none;stroke:black;" d="M1800,-413C1937,-408 2310,-391 2429,-361 2505,-341 2530,-339 2592,-289 2622,-264 2630,-254 2642,-217 2649,-192 2648,-163 2645,-142"/>
<polygon style="fill:black;stroke:black;" points="2648.48,-141.602 2644,-132 2641.51,-142.299 2648.48,-141.602"/>
</g>
<!-- u28&#45;&gt;u10 -->
<g id="edge29" class="edge"><title>u28&#45;&gt;u10</title>
<path style="fill:none;stroke:black;" d="M1800,-413C1940,-406 2323,-380 2400,-289 2433,-249 2435,-212 2402,-173 2387,-156 2372,-174 2353,-165 2340,-159 2329,-149 2320,-139"/>
<polygon style="fill:black;stroke:black;" points="2322.22,-136.221 2313,-131 2316.95,-140.831 2322.22,-136.221"/>
</g>
<!-- u28&#45;&gt;u4 -->
<g id="edge33" class="edge"><title>u28&#45;&gt;u4</title>
<path style="fill:none;stroke:black;" d="M1800,-413C1919,-408 2211,-392 2303,-361 2362,-341 2385,-339 2421,-289 2450,-246 2448,-223 2436,-173 2433,-162 2428,-150 2423,-141"/>
<polygon style="fill:black;stroke:black;" points="2425.92,-139.042 2418,-132 2419.8,-142.441 2425.92,-139.042"/>
</g>
<!-- u28&#45;&gt;u1 -->
<g id="edge37" class="edge"><title>u28&#45;&gt;u1</title>
<path style="fill:none;stroke:black;" d="M1800,-413C1927,-408 2252,-391 2355,-361 2484,-322 2553,-333 2623,-217 2633,-200 2635,-188 2623,-173 2613,-160 2602,-171 2589,-165 2575,-158 2560,-147 2549,-138"/>
<polygon style="fill:black;stroke:black;" points="2550.83,-134.951 2541,-131 2546.22,-140.219 2550.83,-134.951"/>
</g>
<!-- u27&#45;&gt;u13 -->
<g id="edge57" class="edge"><title>u27&#45;&gt;u13</title>
<path style="fill:none;stroke:black;" d="M1685,-333C1626,-320 1525,-297 1488,-289 1363,-259 1332,-251 1207,-217 1102,-187 979,-152 910,-131"/>
<polygon style="fill:black;stroke:black;" points="910.584,-127.521 900,-128 908.573,-134.226 910.584,-127.521"/>
</g>
<!-- u27&#45;&gt;u9 -->
<g id="edge55" class="edge"><title>u27&#45;&gt;u9</title>
<path style="fill:none;stroke:black;" d="M1687,-354C1674,-357 1660,-359 1647,-361 1322,-403 1234,-349 909,-397 903,-398 898,-399 893,-400"/>
<polygon style="fill:black;stroke:black;" points="892.119,-396.607 883,-402 893.492,-403.471 892.119,-396.607"/>
</g>
<!-- u27&#45;&gt;u7 -->
<g id="edge59" class="edge"><title>u27&#45;&gt;u7</title>
<path style="fill:none;stroke:black;" d="M1687,-332C1674,-329 1660,-327 1647,-325 1441,-295 1386,-317 1179,-289 1097,-277 1078,-265 995,-253 839,-229 796,-249 641,-217 637,-216 634,-215 630,-214"/>
<polygon style="fill:black;stroke:black;" points="630.584,-210.521 620,-211 628.573,-217.226 630.584,-210.521"/>
</g>
<!-- u27&#45;&gt;u5 -->
<g id="edge53" class="edge"><title>u27&#45;&gt;u5</title>
<path style="fill:none;stroke:black;" d="M1687,-332C1674,-329 1660,-327 1647,-325 1562,-313 1003,-287 772,-275"/>
<polygon style="fill:black;stroke:black;" points="772,-271.5 762,-275 772,-278.5 772,-271.5"/>
</g>
<!-- u27&#45;&gt;u17 -->
<g id="edge63" class="edge"><title>u27&#45;&gt;u17</title>
<path style="fill:none;stroke:black;" d="M1696,-329C1667,-317 1626,-301 1596,-289"/>
<polygon style="fill:black;stroke:black;" points="1596.58,-285.464 1586,-285 1593.98,-291.964 1596.58,-285.464"/>
</g>
<!-- u27&#45;&gt;u21 -->
<g id="edge61" class="edge"><title>u27&#45;&gt;u21</title>
<path style="fill:none;stroke:black;" d="M1786,-341C2005,-334 2803,-302 2872,-217 2884,-201 2883,-188 2872,-173 2865,-163 2857,-170 2847,-165 2830,-158 2813,-147 2799,-137"/>
<polygon style="fill:black;stroke:black;" points="2801.1,-134.2 2791,-131 2796.9,-139.8 2801.1,-134.2"/>
</g>
<!-- u27&#45;&gt;u18 -->
<g id="edge69" class="edge"><title>u27&#45;&gt;u18</title>
<path style="fill:none;stroke:black;" d="M1786,-342C1939,-340 2368,-330 2501,-289 2561,-270 2587,-268 2623,-217 2638,-195 2641,-164 2641,-142"/>
<polygon style="fill:black;stroke:black;" points="2644.5,-142 2641,-132 2637.5,-142 2644.5,-142"/>
</g>
<!-- u27&#45;&gt;u10 -->
<g id="edge65" class="edge"><title>u27&#45;&gt;u10</title>
<path style="fill:none;stroke:black;" d="M1786,-343C1935,-341 2339,-332 2378,-289 2412,-251 2408,-214 2378,-173 2371,-163 2364,-170 2353,-165 2341,-158 2330,-148 2321,-139"/>
<polygon style="fill:black;stroke:black;" points="2323.22,-136.221 2314,-131 2317.95,-140.831 2323.22,-136.221"/>
</g>
<!-- u27&#45;&gt;u4 -->
<g id="edge67" class="edge"><title>u27&#45;&gt;u4</title>
<path style="fill:none;stroke:black;" d="M1786,-343C1939,-341 2358,-332 2400,-289 2437,-250 2426,-180 2415,-142"/>
<polygon style="fill:black;stroke:black;" points="2418.23,-140.573 2412,-132 2411.52,-142.584 2418.23,-140.573"/>
</g>
<!-- u27&#45;&gt;u1 -->
<g id="edge71" class="edge"><title>u27&#45;&gt;u1</title>
<path style="fill:none;stroke:black;" d="M1786,-341C1927,-335 2301,-316 2421,-289 2507,-269 2556,-289 2606,-217 2617,-200 2616,-189 2606,-173 2601,-165 2596,-169 2589,-165 2576,-157 2563,-146 2551,-137"/>
<polygon style="fill:black;stroke:black;" points="2553.1,-134.2 2543,-131 2548.9,-139.8 2553.1,-134.2"/>
</g>
<!-- u26&#45;&gt;u13 -->
<g id="edge77" class="edge"><title>u26&#45;&gt;u13</title>
<path style="fill:none;stroke:black;" d="M1285,-331C1242,-323 1184,-309 1136,-289 1039,-247 935,-175 885,-137"/>
<polygon style="fill:black;stroke:black;" points="887.1,-134.2 877,-131 882.9,-139.8 887.1,-134.2"/>
</g>
<!-- u26&#45;&gt;u17 -->
<g id="edge79" class="edge"><title>u26&#45;&gt;u17</title>
<path style="fill:none;stroke:black;" d="M1398,-327C1430,-315 1472,-300 1504,-288"/>
<polygon style="fill:black;stroke:black;" points="1506.02,-290.964 1514,-284 1503.42,-284.464 1506.02,-290.964"/>
</g>
<!-- u26&#45;&gt;u15 -->
<g id="edge73" class="edge"><title>u26&#45;&gt;u15</title>
<path style="fill:none;stroke:black;" d="M1419,-330C1431,-328 1443,-326 1455,-325 1533,-316 2103,-342 2160,-289 2200,-251 2195,-181 2188,-142"/>
<polygon style="fill:black;stroke:black;" points="2191.39,-141.119 2186,-132 2184.53,-142.492 2191.39,-141.119"/>
</g>
<!-- u26&#45;&gt;u10 -->
<g id="edge75" class="edge"><title>u26&#45;&gt;u10</title>
<path style="fill:none;stroke:black;" d="M1419,-330C1431,-328 1443,-326 1455,-325 1536,-315 2115,-329 2185,-289 2215,-271 2262,-186 2285,-141"/>
<polygon style="fill:black;stroke:black;" points="2288.2,-142.441 2290,-132 2282.08,-139.042 2288.2,-142.441"/>
</g>
<!-- u20&#45;&gt;u13 -->
<g id="edge93" class="edge"><title>u20&#45;&gt;u13</title>
<path style="fill:none;stroke:black;" d="M1489,-330C1477,-328 1466,-327 1455,-325 1333,-305 1296,-329 1179,-289 1086,-256 1077,-219 988,-173 961,-159 928,-144 903,-133"/>
<polygon style="fill:black;stroke:black;" points="903.585,-129.464 893,-129 900.985,-135.964 903.585,-129.464"/>
</g>
<!-- u20&#45;&gt;u9 -->
<g id="edge99" class="edge"><title>u20&#45;&gt;u9</title>
<path style="fill:none;stroke:black;" d="M1489,-356C1478,-358 1466,-359 1455,-361 1214,-391 1150,-359 909,-397 904,-398 899,-399 894,-400"/>
<polygon style="fill:black;stroke:black;" points="893.119,-396.607 884,-402 894.492,-403.471 893.119,-396.607"/>
</g>
<!-- u20&#45;&gt;u7 -->
<g id="edge95" class="edge"><title>u20&#45;&gt;u7</title>
<path style="fill:none;stroke:black;" d="M1490,-330C1478,-328 1466,-326 1455,-325 1265,-299 1211,-331 1023,-289 979,-279 972,-263 927,-253 803,-222 767,-245 641,-217 637,-216 634,-215 630,-214"/>
<polygon style="fill:black;stroke:black;" points="630.584,-210.521 620,-211 628.573,-217.226 630.584,-210.521"/>
</g>
<!-- u20&#45;&gt;u5 -->
<g id="edge97" class="edge"><title>u20&#45;&gt;u5</title>
<path style="fill:none;stroke:black;" d="M1490,-330C1478,-328 1466,-326 1455,-325 1447,-323 978,-292 769,-278"/>
<polygon style="fill:black;stroke:black;" points="769.299,-274.512 759,-277 768.602,-281.478 769.299,-274.512"/>
</g>
<!-- u20&#45;&gt;u17 -->
<g id="edge101" class="edge"><title>u20&#45;&gt;u17</title>
<path style="fill:none;stroke:black;" d="M1551,-325C1551,-317 1551,-308 1551,-299"/>
<polygon style="fill:black;stroke:black;" points="1554.5,-299 1551,-289 1547.5,-299 1554.5,-299"/>
</g>
<!-- u20&#45;&gt;u21 -->
<g id="edge85" class="edge"><title>u20&#45;&gt;u21</title>
<path style="fill:none;stroke:black;" d="M1617,-331C1634,-329 1651,-327 1667,-325 1764,-315 2450,-322 2542,-289 2628,-257 2708,-180 2746,-139"/>
<polygon style="fill:black;stroke:black;" points="2748.4,-141.546 2753,-132 2743.45,-136.596 2748.4,-141.546"/>
</g>
<!-- u20&#45;&gt;u18 -->
<g id="edge89" class="edge"><title>u20&#45;&gt;u18</title>
<path style="fill:none;stroke:black;" d="M1617,-331C1634,-329 1651,-327 1667,-325 1853,-306 2330,-353 2504,-289 2552,-271 2563,-257 2595,-217 2612,-194 2624,-164 2632,-142"/>
<polygon style="fill:black;stroke:black;" points="2635.48,-142.584 2635,-132 2628.77,-140.573 2635.48,-142.584"/>
</g>
<!-- u20&#45;&gt;u15 -->
<g id="edge103" class="edge"><title>u20&#45;&gt;u15</title>
<path style="fill:none;stroke:black;" d="M1617,-331C1634,-329 1651,-327 1667,-325 1725,-318 2149,-331 2188,-289 2226,-250 2208,-180 2194,-141"/>
<polygon style="fill:black;stroke:black;" points="2197.26,-139.717 2190,-132 2190.86,-142.56 2197.26,-139.717"/>
</g>
<!-- u20&#45;&gt;u10 -->
<g id="edge83" class="edge"><title>u20&#45;&gt;u10</title>
<path style="fill:none;stroke:black;" d="M1617,-331C1634,-329 1651,-327 1667,-325 1788,-311 2099,-332 2212,-289 2260,-270 2280,-263 2302,-217 2313,-193 2311,-163 2306,-142"/>
<polygon style="fill:black;stroke:black;" points="2309.39,-141.119 2304,-132 2302.53,-142.492 2309.39,-141.119"/>
</g>
<!-- u20&#45;&gt;u4 -->
<g id="edge87" class="edge"><title>u20&#45;&gt;u4</title>
<path style="fill:none;stroke:black;" d="M1617,-331C1634,-329 1651,-327 1667,-325 1798,-310 2140,-346 2258,-289 2324,-257 2371,-181 2392,-141"/>
<polygon style="fill:black;stroke:black;" points="2395.2,-142.441 2397,-132 2389.08,-139.042 2395.2,-142.441"/>
</g>
<!-- u20&#45;&gt;u1 -->
<g id="edge91" class="edge"><title>u20&#45;&gt;u1</title>
<path style="fill:none;stroke:black;" d="M1617,-331C1634,-329 1651,-327 1667,-325 1870,-303 2453,-378 2578,-217 2597,-192 2573,-160 2552,-138"/>
<polygon style="fill:black;stroke:black;" points="2553.83,-134.951 2544,-131 2549.22,-140.219 2553.83,-134.951"/>
</g>
<!-- u19&#45;&gt;u9 -->
<g id="edge105" class="edge"><title>u19&#45;&gt;u9</title>
<path style="fill:none;stroke:black;" d="M1286,-205C1178,-221 919,-264 858,-325 843,-341 837,-367 836,-387"/>
<polygon style="fill:black;stroke:black;" points="832.5,-387 836,-397 839.5,-387 832.5,-387"/>
</g>
<!-- u19&#45;&gt;u5 -->
<g id="edge107" class="edge"><title>u19&#45;&gt;u5</title>
<path style="fill:none;stroke:black;" d="M1285,-204C1176,-216 905,-246 762,-261"/>
<polygon style="fill:black;stroke:black;" points="761.602,-257.522 752,-262 762.299,-264.488 761.602,-257.522"/>
</g>
<!-- u19&#45;&gt;u18 -->
<g id="edge111" class="edge"><title>u19&#45;&gt;u18</title>
<path style="fill:none;stroke:black;" d="M1383,-197C1503,-192 1820,-179 2084,-173 2099,-172 2576,-170 2589,-165 2602,-159 2613,-149 2622,-139"/>
<polygon style="fill:black;stroke:black;" points="2624.8,-141.1 2628,-131 2619.2,-136.9 2624.8,-141.1"/>
</g>
<!-- u19&#45;&gt;u10 -->
<g id="edge109" class="edge"><title>u19&#45;&gt;u10</title>
<path style="fill:none;stroke:black;" d="M1383,-197C1485,-191 1728,-180 1932,-173 1950,-172 2229,-171 2245,-165 2258,-159 2271,-149 2280,-139"/>
<polygon style="fill:black;stroke:black;" points="2282.8,-141.1 2286,-131 2277.2,-136.9 2282.8,-141.1"/>
</g>
<!-- u17&#45;&gt;u13 -->
<g id="edge129" class="edge"><title>u17&#45;&gt;u13</title>
<path style="fill:none;stroke:black;" d="M1498,-267C1442,-261 1349,-247 1274,-217 1242,-203 1241,-186 1207,-173 1117,-138 1006,-123 933,-118"/>
<polygon style="fill:black;stroke:black;" points="933.299,-114.512 923,-117 932.602,-121.478 933.299,-114.512"/>
</g>
<!-- u17&#45;&gt;u9 -->
<g id="edge123" class="edge"><title>u17&#45;&gt;u9</title>
<path style="fill:none;stroke:black;" d="M1497,-273C1350,-278 949,-295 898,-325 874,-339 857,-366 847,-388"/>
<polygon style="fill:black;stroke:black;" points="843.863,-386.44 843,-397 850.26,-389.283 843.863,-386.44"/>
</g>
<!-- u17&#45;&gt;u7 -->
<g id="edge131" class="edge"><title>u17&#45;&gt;u7</title>
<path style="fill:none;stroke:black;" d="M1497,-269C1315,-260 725,-232 641,-217 637,-216 633,-216 629,-214"/>
<polygon style="fill:black;stroke:black;" points="629.584,-210.521 619,-211 627.573,-217.226 629.584,-210.521"/>
</g>
<!-- u17&#45;&gt;u5 -->
<g id="edge125" class="edge"><title>u17&#45;&gt;u5</title>
<path style="fill:none;stroke:black;" d="M1497,-271C1256,-271 1016,-271 774,-271"/>
<polygon style="fill:black;stroke:black;" points="774,-267.5 764,-271 774,-274.5 774,-267.5"/>
</g>
<!-- u17&#45;&gt;u2 -->
<g id="edge127" class="edge"><title>u17&#45;&gt;u2</title>
<path style="fill:none;stroke:black;" d="M1532,-254C1503,-231 1448,-189 1392,-173 1360,-163 812,-168 777,-165 690,-157 590,-137 535,-124"/>
<polygon style="fill:black;stroke:black;" points="535.492,-120.529 525,-122 534.119,-127.393 535.492,-120.529"/>
</g>
<!-- u17&#45;&gt;u19 -->
<g id="edge135" class="edge"><title>u17&#45;&gt;u19</title>
<path style="fill:none;stroke:black;" d="M1513,-258C1476,-246 1419,-227 1380,-214"/>
<polygon style="fill:black;stroke:black;" points="1380.58,-210.521 1370,-211 1378.57,-217.226 1380.58,-210.521"/>
</g>
<!-- u17&#45;&gt;u18 -->
<g id="edge115" class="edge"><title>u17&#45;&gt;u18</title>
<path style="fill:none;stroke:black;" d="M1605,-270C1793,-267 2412,-249 2589,-165 2601,-159 2612,-149 2621,-139"/>
<polygon style="fill:black;stroke:black;" points="2624.05,-140.831 2628,-131 2618.78,-136.221 2624.05,-140.831"/>
</g>
<!-- u17&#45;&gt;u15 -->
<g id="edge133" class="edge"><title>u17&#45;&gt;u15</title>
<path style="fill:none;stroke:black;" d="M1590,-258C1597,-257 1603,-255 1609,-253 1752,-213 1786,-194 1932,-173 1974,-167 2081,-179 2119,-165 2134,-159 2149,-148 2160,-138"/>
<polygon style="fill:black;stroke:black;" points="2162.4,-140.546 2167,-131 2157.45,-135.596 2162.4,-140.546"/>
</g>
<!-- u17&#45;&gt;u14 -->
<g id="edge117" class="edge"><title>u17&#45;&gt;u14</title>
<path style="fill:none;stroke:black;" d="M1549,-253C1547,-216 1547,-130 1595,-88 1627,-60 1903,-48 2015,-43"/>
<polygon style="fill:black;stroke:black;" points="2015,-46.5001 2025,-43 2015,-39.5001 2015,-46.5001"/>
</g>
<!-- u17&#45;&gt;u10 -->
<g id="edge113" class="edge"><title>u17&#45;&gt;u10</title>
<path style="fill:none;stroke:black;" d="M1600,-263C1658,-254 1759,-236 1844,-217 1918,-200 1934,-184 2008,-173 2035,-169 2221,-175 2245,-165 2258,-159 2271,-149 2280,-139"/>
<polygon style="fill:black;stroke:black;" points="2282.8,-141.1 2286,-131 2277.2,-136.9 2282.8,-141.1"/>
</g>
<!-- u17&#45;&gt;u4 -->
<g id="edge121" class="edge"><title>u17&#45;&gt;u4</title>
<path style="fill:none;stroke:black;" d="M1604,-268C1679,-262 1821,-248 1937,-217 1988,-203 1995,-183 2046,-173 2080,-166 2322,-178 2353,-165 2367,-159 2378,-149 2387,-139"/>
<polygon style="fill:black;stroke:black;" points="2390.05,-140.831 2394,-131 2384.78,-136.221 2390.05,-140.831"/>
</g>
<!-- u17&#45;&gt;u1 -->
<g id="edge119" class="edge"><title>u17&#45;&gt;u1</title>
<path style="fill:none;stroke:black;" d="M1589,-258C1595,-256 1602,-254 1609,-253 1781,-218 1834,-266 2001,-217 2042,-205 2044,-183 2084,-173 2125,-162 2419,-179 2459,-165 2474,-159 2489,-148 2501,-138"/>
<polygon style="fill:black;stroke:black;" points="2503.4,-140.546 2508,-131 2498.45,-135.596 2503.4,-140.546"/>
</g>
<!-- u32 -->
<g id="node26" class="node"><title>u32</title>
<ellipse style="fill:none;stroke:black;" cx="2891" cy="-114" rx="34.9399" ry="18"/>
<text text-anchor="middle" x="2891" y="-109.9" style="font-family:Times New Roman;font-size:14.00;">Error</text>
</g>
<!-- u24&#45;&gt;u14 -->
<g id="edge81" class="edge"><title>u24&#45;&gt;u14</title>
<path style="fill:none;stroke:black;" d="M2062,-96C2062,-88 2062,-79 2062,-70"/>
<polygon style="fill:black;stroke:black;" points="2065.5,-70 2062,-60 2058.5,-70 2065.5,-70"/>
</g>
</g>
</svg>
