<?xml version="1.0" encoding="UTF-8" standalone="no"?>
<!DOCTYPE svg PUBLIC "-//W3C//DTD SVG 1.0//EN"
 "http://www.w3.org/TR/2001/REC-SVG-20010904/DTD/svg10.dtd" [
 <!ATTLIST svg xmlns:xlink CDATA #FIXED "http://www.w3.org/1999/xlink">
]>
<!-- Generated by Graphviz version 2.20.2 (Wed Sep 16 11:12:21 UTC 2009)
     For user: (paolino) paolino,,, -->
<!-- Title: G Pages: 1 -->
<svg width="1264pt" height="551pt"
 viewBox="0.00 0.00 1264.00 551.00" xmlns="http://www.w3.org/2000/svg" xmlns:xlink="http://www.w3.org/1999/xlink">
<g id="graph0" class="graph" transform="scale(1 1) rotate(0) translate(4 547)">
<title>G</title>
<polygon style="fill:white;stroke:white;" points="-4,4 -4,-547 1260,-547 1260,4 -4,4"/>
<g id="cluster2" class="cluster"><title>cluster_0</title>
<polygon style="fill:#ccffcc;stroke:#ccffcc;" points="908,-16 908,-458 1248,-458 1248,-16 908,-16"/>
<text text-anchor="middle" x="1078" y="-441.9" style="font-family:Times New Roman;font-size:14.00;">Core</text>
</g>
<g id="cluster3" class="cluster"><title>cluster_1</title>
<polygon style="fill:#ccffcc;stroke:#ccffcc;" points="692,-381 692,-535 816,-535 816,-381 692,-381"/>
<text text-anchor="middle" x="754" y="-518.9" style="font-family:Times New Roman;font-size:14.00;">Eventi</text>
</g>
<g id="cluster4" class="cluster"><title>cluster_2</title>
<polygon style="fill:#ccffcc;stroke:#ccffcc;" points="208,-160 208,-309 792,-309 792,-160 208,-160"/>
<text text-anchor="middle" x="500" y="-292.9" style="font-family:Times New Roman;font-size:14.00;">Lib</text>
</g>
<!-- u18 -->
<g id="node1" class="node"><title>u18</title>
<ellipse style="fill:none;stroke:black;" cx="150" cy="-484" rx="43.7776" ry="18"/>
<text text-anchor="middle" x="150" y="-479.9" style="font-family:Times New Roman;font-size:14.00;">Ordine</text>
</g>
<!-- u16 -->
<g id="node3" class="node"><title>u16</title>
<ellipse style="fill:none;stroke:black;" cx="70" cy="-407" rx="52.1162" ry="18"/>
<text text-anchor="middle" x="70" y="-402.9" style="font-family:Times New Roman;font-size:14.00;">Impegno</text>
</g>
<!-- u18&#45;&gt;u16 -->
<g id="edge5" class="edge"><title>u18&#45;&gt;u16</title>
<path style="fill:none;stroke:black;" d="M133,-467C121,-457 107,-443 95,-431"/>
<polygon style="fill:black;stroke:black;" points="97.546,-428.596 88,-424 92.5962,-433.546 97.546,-428.596"/>
</g>
<!-- u13 -->
<g id="node4" class="node"><title>u13</title>
<ellipse style="fill:none;stroke:black;" cx="87" cy="-335" rx="55.0898" ry="18"/>
<text text-anchor="middle" x="87" y="-330.9" style="font-family:Times New Roman;font-size:14.00;">Accredito</text>
</g>
<!-- u18&#45;&gt;u13 -->
<g id="edge7" class="edge"><title>u18&#45;&gt;u13</title>
<path style="fill:none;stroke:black;" d="M150,-466C149,-444 146,-408 131,-381 127,-373 122,-366 116,-360"/>
<polygon style="fill:black;stroke:black;" points="118.219,-357.221 109,-352 112.951,-361.831 118.219,-357.221"/>
</g>
<!-- u17 -->
<g id="node2" class="node"><title>u17</title>
<ellipse style="fill:none;stroke:black;" cx="44" cy="-484" rx="43.7776" ry="18"/>
<text text-anchor="middle" x="44" y="-479.9" style="font-family:Times New Roman;font-size:14.00;">Logger</text>
</g>
<!-- u17&#45;&gt;u16 -->
<g id="edge9" class="edge"><title>u17&#45;&gt;u16</title>
<path style="fill:none;stroke:black;" d="M50,-466C53,-457 57,-445 61,-435"/>
<polygon style="fill:black;stroke:black;" points="64.4788,-435.584 64,-425 57.7741,-433.573 64.4788,-435.584"/>
</g>
<!-- u16&#45;&gt;u13 -->
<g id="edge11" class="edge"><title>u16&#45;&gt;u13</title>
<path style="fill:none;stroke:black;" d="M74,-389C76,-381 78,-372 80,-363"/>
<polygon style="fill:black;stroke:black;" points="83.4788,-363.584 83,-353 76.7741,-361.573 83.4788,-363.584"/>
</g>
<!-- u7 -->
<g id="node6" class="node"><title>u7</title>
<ellipse style="fill:none;stroke:black;" cx="1005" cy="-335" rx="68.7933" ry="18"/>
<text text-anchor="middle" x="1005" y="-330.9" style="font-family:Times New Roman;font-size:14.00;">Inserimento</text>
</g>
<!-- u6 -->
<g id="node7" class="node"><title>u6</title>
<ellipse style="fill:none;stroke:black;" cx="1145" cy="-258" rx="34.9399" ry="18"/>
<text text-anchor="middle" x="1145" y="-253.9" style="font-family:Times New Roman;font-size:14.00;">Nodo</text>
</g>
<!-- u7&#45;&gt;u6 -->
<g id="edge49" class="edge"><title>u7&#45;&gt;u6</title>
<path style="fill:none;stroke:black;" d="M1035,-319C1058,-307 1089,-289 1112,-276"/>
<polygon style="fill:black;stroke:black;" points="1113.96,-278.916 1121,-271 1110.56,-272.797 1113.96,-278.916"/>
</g>
<!-- u5 -->
<g id="node8" class="node"><title>u5</title>
<ellipse style="fill:none;stroke:black;" cx="962" cy="-114" rx="45.8622" ry="18"/>
<text text-anchor="middle" x="962" y="-109.9" style="font-family:Times New Roman;font-size:14.00;">Parsing</text>
</g>
<!-- u7&#45;&gt;u5 -->
<g id="edge41" class="edge"><title>u7&#45;&gt;u5</title>
<path style="fill:none;stroke:black;" d="M963,-320C959,-317 955,-314 952,-309 921,-256 939,-182 952,-141"/>
<polygon style="fill:black;stroke:black;" points="955.158,-142.594 955,-132 948.517,-140.38 955.158,-142.594"/>
</g>
<!-- u4 -->
<g id="node9" class="node"><title>u4</title>
<ellipse style="fill:none;stroke:black;" cx="1088" cy="-186" rx="91.9198" ry="18"/>
<text text-anchor="middle" x="1088" y="-181.9" style="font-family:Times New Roman;font-size:14.00;">Programmazione</text>
</g>
<!-- u7&#45;&gt;u4 -->
<g id="edge47" class="edge"><title>u7&#45;&gt;u4</title>
<path style="fill:none;stroke:black;" d="M1015,-317C1029,-291 1056,-243 1073,-213"/>
<polygon style="fill:black;stroke:black;" points="1076.2,-214.441 1078,-204 1070.08,-211.042 1076.2,-214.441"/>
</g>
<!-- u1 -->
<g id="node11" class="node"><title>u1</title>
<ellipse style="fill:none;stroke:black;" cx="1173" cy="-42" rx="37.0233" ry="18"/>
<text text-anchor="middle" x="1173" y="-37.9" style="font-family:Times New Roman;font-size:14.00;">Types</text>
</g>
<!-- u7&#45;&gt;u1 -->
<g id="edge43" class="edge"><title>u7&#45;&gt;u1</title>
<path style="fill:none;stroke:black;" d="M979,-318C976,-315 974,-312 972,-309 958,-279 953,-188 969,-160 982,-138 1000,-149 1017,-132 1030,-118 1024,-108 1037,-96 1063,-73 1100,-59 1129,-51"/>
<polygon style="fill:black;stroke:black;" points="1129.88,-54.3933 1139,-49 1128.51,-47.5292 1129.88,-54.3933"/>
</g>
<!-- u0 -->
<g id="node12" class="node"><title>u0</title>
<ellipse style="fill:none;stroke:black;" cx="1100" cy="-114" rx="54.2008" ry="18"/>
<text text-anchor="middle" x="1100" y="-109.9" style="font-family:Times New Roman;font-size:14.00;">Contesto</text>
</g>
<!-- u7&#45;&gt;u0 -->
<g id="edge45" class="edge"><title>u7&#45;&gt;u0</title>
<path style="fill:none;stroke:black;" d="M996,-317C981,-283 955,-208 987,-160 995,-148 1023,-137 1048,-129"/>
<polygon style="fill:black;stroke:black;" points="1049.43,-132.226 1058,-126 1047.42,-125.521 1049.43,-132.226"/>
</g>
<!-- u9 -->
<g id="node20" class="node"><title>u9</title>
<ellipse style="fill:none;stroke:black;" cx="620" cy="-258" rx="39.8056" ry="18"/>
<text text-anchor="middle" x="620" y="-253.9" style="font-family:Times New Roman;font-size:14.00;">Signal</text>
</g>
<!-- u7&#45;&gt;u9 -->
<g id="edge39" class="edge"><title>u7&#45;&gt;u9</title>
<path style="fill:none;stroke:black;" d="M951,-324C935,-321 918,-318 902,-317 877,-314 693,-319 669,-309 657,-303 646,-293 637,-283"/>
<polygon style="fill:black;stroke:black;" points="639.8,-280.9 631,-275 634.2,-285.1 639.8,-280.9"/>
</g>
<!-- u8 -->
<g id="node21" class="node"><title>u8</title>
<ellipse style="fill:none;stroke:black;" cx="512" cy="-186" rx="45.1673" ry="18"/>
<text text-anchor="middle" x="512" y="-181.9" style="font-family:Times New Roman;font-size:14.00;">Aspetti</text>
</g>
<!-- u7&#45;&gt;u8 -->
<g id="edge37" class="edge"><title>u7&#45;&gt;u8</title>
<path style="fill:none;stroke:black;" d="M961,-321C951,-317 941,-313 932,-309 882,-284 879,-260 826,-240 740,-206 631,-193 567,-189"/>
<polygon style="fill:black;stroke:black;" points="567.299,-185.512 557,-188 566.602,-192.478 567.299,-185.512"/>
</g>
<!-- u6&#45;&gt;u4 -->
<g id="edge53" class="edge"><title>u6&#45;&gt;u4</title>
<path style="fill:none;stroke:black;" d="M1132,-241C1125,-232 1116,-222 1109,-212"/>
<polygon style="fill:black;stroke:black;" points="1111.22,-209.221 1102,-204 1105.95,-213.831 1111.22,-209.221"/>
</g>
<!-- u6&#45;&gt;u1 -->
<g id="edge51" class="edge"><title>u6&#45;&gt;u1</title>
<path style="fill:none;stroke:black;" d="M1163,-242C1173,-232 1184,-219 1189,-204 1205,-159 1193,-102 1183,-70"/>
<polygon style="fill:black;stroke:black;" points="1186.23,-68.5725 1180,-60 1179.52,-70.584 1186.23,-68.5725"/>
</g>
<!-- u4&#45;&gt;u5 -->
<g id="edge59" class="edge"><title>u4&#45;&gt;u5</title>
<path style="fill:none;stroke:black;" d="M1058,-169C1040,-159 1016,-145 997,-134"/>
<polygon style="fill:black;stroke:black;" points="998.441,-130.797 988,-129 995.042,-136.916 998.441,-130.797"/>
</g>
<!-- u4&#45;&gt;u1 -->
<g id="edge55" class="edge"><title>u4&#45;&gt;u1</title>
<path style="fill:none;stroke:black;" d="M1123,-169C1138,-160 1154,-148 1163,-132 1174,-114 1176,-89 1176,-70"/>
<polygon style="fill:black;stroke:black;" points="1179.48,-69.6021 1175,-60 1172.51,-70.2987 1179.48,-69.6021"/>
</g>
<!-- u4&#45;&gt;u0 -->
<g id="edge57" class="edge"><title>u4&#45;&gt;u0</title>
<path style="fill:none;stroke:black;" d="M1091,-168C1092,-160 1094,-151 1095,-142"/>
<polygon style="fill:black;stroke:black;" points="1098.47,-142.492 1097,-132 1091.61,-141.119 1098.47,-142.492"/>
</g>
<!-- u2 -->
<g id="node10" class="node"><title>u2</title>
<ellipse style="fill:none;stroke:black;" cx="1005" cy="-407" rx="54.8957" ry="18"/>
<text text-anchor="middle" x="1005" y="-402.9" style="font-family:Times New Roman;font-size:14.00;">Controllo</text>
</g>
<!-- u2&#45;&gt;u7 -->
<g id="edge73" class="edge"><title>u2&#45;&gt;u7</title>
<path style="fill:none;stroke:black;" d="M1005,-389C1005,-381 1005,-372 1005,-363"/>
<polygon style="fill:black;stroke:black;" points="1008.5,-363 1005,-353 1001.5,-363 1008.5,-363"/>
</g>
<!-- u2&#45;&gt;u6 -->
<g id="edge67" class="edge"><title>u2&#45;&gt;u6</title>
<path style="fill:none;stroke:black;" d="M1039,-393C1059,-384 1082,-370 1098,-353 1117,-333 1129,-306 1137,-285"/>
<polygon style="fill:black;stroke:black;" points="1140.16,-286.594 1140,-276 1133.52,-284.38 1140.16,-286.594"/>
</g>
<!-- u2&#45;&gt;u5 -->
<g id="edge71" class="edge"><title>u2&#45;&gt;u5</title>
<path style="fill:none;stroke:black;" d="M971,-393C955,-384 937,-371 927,-353 913,-325 882,-330 934,-160 936,-153 940,-146 943,-140"/>
<polygon style="fill:black;stroke:black;" points="946.365,-141.262 949,-131 940.541,-137.379 946.365,-141.262"/>
</g>
<!-- u2&#45;&gt;u4 -->
<g id="edge65" class="edge"><title>u2&#45;&gt;u4</title>
<path style="fill:none;stroke:black;" d="M1039,-393C1055,-384 1073,-371 1083,-353 1107,-309 1102,-249 1095,-214"/>
<polygon style="fill:black;stroke:black;" points="1098.39,-213.119 1093,-204 1091.53,-214.492 1098.39,-213.119"/>
</g>
<!-- u2&#45;&gt;u1 -->
<g id="edge63" class="edge"><title>u2&#45;&gt;u1</title>
<path style="fill:none;stroke:black;" d="M1044,-394C1056,-390 1071,-385 1084,-381 1123,-368 1138,-375 1171,-353 1214,-323 1239,-309 1239,-258 1239,-258 1239,-258 1239,-186 1239,-141 1212,-95 1193,-67"/>
<polygon style="fill:black;stroke:black;" points="1195.8,-64.9 1187,-59 1190.2,-69.1 1195.8,-64.9"/>
</g>
<!-- u2&#45;&gt;u0 -->
<g id="edge69" class="edge"><title>u2&#45;&gt;u0</title>
<path style="fill:none;stroke:black;" d="M1051,-397C1096,-385 1161,-359 1189,-309 1222,-251 1223,-216 1189,-160 1181,-146 1167,-136 1152,-129"/>
<polygon style="fill:black;stroke:black;" points="1153.56,-125.863 1143,-125 1150.72,-132.26 1153.56,-125.863"/>
</g>
<!-- u3 -->
<g id="node22" class="node"><title>u3</title>
<ellipse style="fill:none;stroke:black;" cx="518" cy="-258" rx="43.7776" ry="18"/>
<text text-anchor="middle" x="518" y="-253.9" style="font-family:Times New Roman;font-size:14.00;">Prioriti</text>
</g>
<!-- u2&#45;&gt;u3 -->
<g id="edge61" class="edge"><title>u2&#45;&gt;u3</title>
<path style="fill:none;stroke:black;" d="M964,-395C897,-376 759,-338 640,-317 610,-311 599,-322 571,-309 558,-303 547,-293 538,-283"/>
<polygon style="fill:black;stroke:black;" points="540.219,-280.221 531,-275 534.951,-284.831 540.219,-280.221"/>
</g>
<!-- u0&#45;&gt;u1 -->
<g id="edge75" class="edge"><title>u0&#45;&gt;u1</title>
<path style="fill:none;stroke:black;" d="M1117,-97C1127,-88 1139,-76 1149,-66"/>
<polygon style="fill:black;stroke:black;" points="1151.4,-68.546 1156,-59 1146.45,-63.5962 1151.4,-68.546"/>
</g>
<!-- u15 -->
<g id="node14" class="node"><title>u15</title>
<ellipse style="fill:none;stroke:black;" cx="758" cy="-407" rx="50.0315" ry="18"/>
<text text-anchor="middle" x="758" y="-402.9" style="font-family:Times New Roman;font-size:14.00;">Servizio</text>
</g>
<!-- u15&#45;&gt;u7 -->
<g id="edge13" class="edge"><title>u15&#45;&gt;u7</title>
<path style="fill:none;stroke:black;" d="M797,-396C838,-384 903,-365 949,-351"/>
<polygon style="fill:black;stroke:black;" points="950.427,-354.226 959,-348 948.416,-347.521 950.427,-354.226"/>
</g>
<!-- u15&#45;&gt;u4 -->
<g id="edge15" class="edge"><title>u15&#45;&gt;u4</title>
<path style="fill:none;stroke:black;" d="M782,-391C838,-353 986,-254 1053,-210"/>
<polygon style="fill:black;stroke:black;" points="1055.62,-212.459 1062,-204 1051.74,-206.635 1055.62,-212.459"/>
</g>
<!-- u10 -->
<g id="node19" class="node"><title>u10</title>
<ellipse style="fill:none;stroke:black;" cx="414" cy="-258" rx="41.8891" ry="18"/>
<text text-anchor="middle" x="414" y="-253.9" style="font-family:Times New Roman;font-size:14.00;">Assocs</text>
</g>
<!-- u15&#45;&gt;u10 -->
<g id="edge19" class="edge"><title>u15&#45;&gt;u10</title>
<path style="fill:none;stroke:black;" d="M722,-395C670,-377 572,-344 489,-317 479,-313 475,-314 465,-309 454,-302 443,-292 435,-283"/>
<polygon style="fill:black;stroke:black;" points="437.219,-280.221 428,-275 431.951,-284.831 437.219,-280.221"/>
</g>
<!-- u15&#45;&gt;u8 -->
<g id="edge17" class="edge"><title>u15&#45;&gt;u8</title>
<path style="fill:none;stroke:black;" d="M770,-389C791,-356 830,-284 793,-240 765,-206 641,-193 567,-189"/>
<polygon style="fill:black;stroke:black;" points="567.299,-185.512 557,-188 566.602,-192.478 567.299,-185.512"/>
</g>
<!-- u14 -->
<g id="node15" class="node"><title>u14</title>
<ellipse style="fill:none;stroke:black;" cx="754" cy="-484" rx="54.2008" ry="18"/>
<text text-anchor="middle" x="754" y="-479.9" style="font-family:Times New Roman;font-size:14.00;">Anagrafe</text>
</g>
<!-- u14&#45;&gt;u7 -->
<g id="edge21" class="edge"><title>u14&#45;&gt;u7</title>
<path style="fill:none;stroke:black;" d="M808,-483C894,-482 1052,-476 1069,-458 1093,-432 1085,-411 1069,-381 1064,-371 1056,-363 1048,-357"/>
<polygon style="fill:black;stroke:black;" points="1049.26,-353.635 1039,-351 1045.38,-359.459 1049.26,-353.635"/>
</g>
<!-- u14&#45;&gt;u4 -->
<g id="edge23" class="edge"><title>u14&#45;&gt;u4</title>
<path style="fill:none;stroke:black;" d="M808,-482C897,-479 1068,-472 1092,-458 1184,-403 1243,-330 1189,-240 1180,-225 1165,-213 1149,-205"/>
<polygon style="fill:black;stroke:black;" points="1150.56,-201.863 1140,-201 1147.72,-208.26 1150.56,-201.863"/>
</g>
<!-- u14&#45;&gt;u15 -->
<g id="edge33" class="edge"><title>u14&#45;&gt;u15</title>
<path style="fill:none;stroke:black;" d="M755,-466C756,-457 756,-445 756,-435"/>
<polygon style="fill:black;stroke:black;" points="759.488,-435.299 757,-425 752.522,-434.602 759.488,-435.299"/>
</g>
<!-- u11 -->
<g id="node18" class="node"><title>u11</title>
<ellipse style="fill:none;stroke:black;" cx="285" cy="-258" rx="68.7933" ry="18"/>
<text text-anchor="middle" x="285" y="-253.9" style="font-family:Times New Roman;font-size:14.00;">Costruzione</text>
</g>
<!-- u14&#45;&gt;u11 -->
<g id="edge29" class="edge"><title>u14&#45;&gt;u11</title>
<path style="fill:none;stroke:black;" d="M717,-471C710,-469 703,-467 696,-466 655,-458 546,-474 506,-458 416,-420 338,-329 304,-284"/>
<polygon style="fill:black;stroke:black;" points="306.8,-281.9 298,-276 301.2,-286.1 306.8,-281.9"/>
</g>
<!-- u14&#45;&gt;u10 -->
<g id="edge27" class="edge"><title>u14&#45;&gt;u10</title>
<path style="fill:none;stroke:black;" d="M716,-471C710,-469 703,-467 696,-466 661,-458 649,-471 615,-458 529,-421 460,-330 430,-284"/>
<polygon style="fill:black;stroke:black;" points="432.916,-282.042 425,-275 426.797,-285.441 432.916,-282.042"/>
</g>
<!-- u14&#45;&gt;u8 -->
<g id="edge25" class="edge"><title>u14&#45;&gt;u8</title>
<path style="fill:none;stroke:black;" d="M717,-471C710,-469 703,-467 696,-466 663,-460 425,-469 393,-458 294,-421 253,-404 207,-309 194,-281 188,-263 207,-240 239,-203 377,-191 457,-187"/>
<polygon style="fill:black;stroke:black;" points="457,-190.5 467,-187 457,-183.5 457,-190.5"/>
</g>
<!-- u14&#45;&gt;u3 -->
<g id="edge31" class="edge"><title>u14&#45;&gt;u3</title>
<path style="fill:none;stroke:black;" d="M719,-470C712,-467 705,-463 699,-458 630,-406 566,-325 536,-284"/>
<polygon style="fill:black;stroke:black;" points="538.8,-281.9 530,-276 533.2,-286.1 538.8,-281.9"/>
</g>
<!-- u12 -->
<g id="node17" class="node"><title>u12</title>
<ellipse style="fill:none;stroke:black;" cx="731" cy="-258" rx="53.0059" ry="18"/>
<text text-anchor="middle" x="731" y="-253.9" style="font-family:Times New Roman;font-size:14.00;">TreeLogs</text>
</g>
<!-- u11&#45;&gt;u8 -->
<g id="edge35" class="edge"><title>u11&#45;&gt;u8</title>
<path style="fill:none;stroke:black;" d="M329,-244C369,-231 427,-213 467,-200"/>
<polygon style="fill:black;stroke:black;" points="468.427,-203.226 477,-197 466.416,-196.521 468.427,-203.226"/>
</g>
</g>
</svg>
